<svg width="975" height="496" fill="none" xmlns="http://www.w3.org/2000/svg"><path fill="#F7F7F7" d="M0 0h975v496H0z"/><path d="M683 281H525" stroke="#000" stroke-width="1.5" stroke-linecap="round" stroke-dasharray="0.5 8"/><circle cx="786" cy="339" r="117" fill="#333293" fill-opacity=".9"/><path d="M746.099 334v-2.142h-6.321V319.3h-2.415V334h8.736zm11.617-1.974c-.462 0-.693-.147-.693-.693v-4.305c0-2.541-1.638-3.906-4.494-3.906-2.709 0-4.515 1.302-4.746 3.402h2.226c.168-.945 1.071-1.575 2.415-1.575 1.491 0 2.352.735 2.352 1.932v.651h-2.709c-3.003 0-4.599 1.239-4.599 3.444 0 1.995 1.638 3.15 3.99 3.15 1.743 0 2.835-.756 3.549-1.848 0 1.071.504 1.722 1.974 1.722h1.197v-1.974h-.462zm-2.94-2.436c-.021 1.659-1.113 2.772-3.003 2.772-1.239 0-1.995-.63-1.995-1.533 0-1.092.777-1.617 2.184-1.617h2.814v.378zm10.727-6.468c-1.743 0-2.772.693-3.444 1.533l-.252-1.407h-1.974V334h2.268v-5.418c0-2.184 1.071-3.507 2.877-3.507 1.701 0 2.562 1.092 2.562 3.129V334h2.289v-5.985c0-3.591-1.953-4.893-4.326-4.893zm15.02 1.806c-.693-1.071-1.848-1.806-3.528-1.806-2.919 0-5.082 2.163-5.082 5.46 0 3.423 2.163 5.46 5.082 5.46 1.68 0 2.793-.693 3.507-1.764v1.197c0 2.058-1.113 3.003-3.087 3.003-1.596 0-2.646-.693-2.919-1.89h-2.31c.21 2.415 2.205 3.738 5.061 3.738 3.864 0 5.502-1.848 5.502-4.767v-10.311h-1.974l-.252 1.68zm-3.15 7.203c-1.89 0-3.129-1.449-3.129-3.549 0-2.079 1.239-3.549 3.129-3.549s3.129 1.47 3.129 3.591c0 2.058-1.239 3.507-3.129 3.507zm15.383-3.507c0 2.226-1.05 3.528-2.772 3.528-1.659 0-2.499-1.071-2.499-3.171v-5.733h-2.268v5.985c0 3.675 1.953 4.893 4.242 4.893 1.659 0 2.646-.672 3.318-1.491l.252 1.365h1.995v-10.752h-2.268v5.376zm14.751 3.402c-.462 0-.693-.147-.693-.693v-4.305c0-2.541-1.638-3.906-4.494-3.906-2.709 0-4.515 1.302-4.746 3.402h2.226c.168-.945 1.071-1.575 2.415-1.575 1.491 0 2.352.735 2.352 1.932v.651h-2.709c-3.003 0-4.599 1.239-4.599 3.444 0 1.995 1.638 3.15 3.99 3.15 1.743 0 2.835-.756 3.549-1.848 0 1.071.504 1.722 1.974 1.722h1.197v-1.974h-.462zm-2.94-2.436c-.021 1.659-1.113 2.772-3.003 2.772-1.239 0-1.995-.63-1.995-1.533 0-1.092.777-1.617 2.184-1.617h2.814v.378zm13.268-4.662c-.693-1.071-1.848-1.806-3.528-1.806-2.919 0-5.082 2.163-5.082 5.46 0 3.423 2.163 5.46 5.082 5.46 1.68 0 2.793-.693 3.507-1.764v1.197c0 2.058-1.113 3.003-3.087 3.003-1.596 0-2.646-.693-2.919-1.89h-2.31c.21 2.415 2.205 3.738 5.061 3.738 3.864 0 5.502-1.848 5.502-4.767v-10.311h-1.974l-.252 1.68zm-3.15 7.203c-1.89 0-3.129-1.449-3.129-3.549 0-2.079 1.239-3.549 3.129-3.549s3.129 1.47 3.129 3.591c0 2.058-1.239 3.507-3.129 3.507zm13.116 1.995c2.667 0 4.473-1.617 4.851-3.738h-2.268c-.315 1.197-1.323 1.89-2.709 1.89-1.785 0-2.94-1.197-3.003-3.024v-.147h8.106a6.16 6.16 0 00.063-.861c-.063-3.15-2.142-5.124-5.25-5.124-3.171 0-5.292 2.205-5.292 5.523 0 3.297 2.121 5.481 5.502 5.481zm-3.045-6.678c.168-1.533 1.407-2.499 2.856-2.499 1.575 0 2.688.903 2.877 2.499h-5.733zM755.645 358h2.331v-10.815l4.41 10.815h2.037l4.41-10.815V358h2.331v-14.7h-3.066l-4.62 11.571-4.704-11.571h-3.129V358zm23.482.126c3.276 0 5.481-2.205 5.481-5.502 0-3.276-2.205-5.502-5.481-5.502s-5.481 2.226-5.481 5.502c0 3.297 2.205 5.502 5.481 5.502zm0-1.932c-1.911 0-3.15-1.491-3.15-3.57 0-2.079 1.239-3.57 3.15-3.57 1.911 0 3.171 1.491 3.171 3.57 0 2.079-1.26 3.57-3.171 3.57zm15.893-7.455c-.693-.945-1.848-1.617-3.486-1.617-2.919 0-5.082 2.184-5.082 5.502 0 3.444 2.163 5.502 5.082 5.502 1.701 0 2.814-.798 3.507-1.743l.273 1.617h1.974v-14.7h-2.268v5.439zm-3.108 7.476c-1.89 0-3.129-1.47-3.129-3.591 0-2.1 1.239-3.57 3.129-3.57s3.129 1.47 3.129 3.612c0 2.079-1.239 3.549-3.129 3.549zm13.116 1.911c2.667 0 4.473-1.617 4.851-3.738h-2.268c-.315 1.197-1.323 1.89-2.709 1.89-1.785 0-2.94-1.197-3.003-3.024v-.147h8.106a6.16 6.16 0 00.063-.861c-.063-3.15-2.142-5.124-5.25-5.124-3.171 0-5.292 2.205-5.292 5.523 0 3.297 2.121 5.481 5.502 5.481zm-3.045-6.678c.168-1.533 1.407-2.499 2.856-2.499 1.575 0 2.688.903 2.877 2.499h-5.733zM812.321 358h2.268v-14.7h-2.268V358z" fill="#F1F1F7"/><path d="M200.428 64h1.827v-5.649h3.822c2.94 0 4.872-1.785 4.872-4.536 0-2.751-1.932-4.515-4.872-4.515h-5.649V64zm5.502-13.02c1.932 0 3.15 1.092 3.15 2.835 0 1.743-1.239 2.856-3.171 2.856h-3.654V50.98h3.675zm12.091 2.31c-1.911 0-2.73.798-3.234 1.617l-.231-1.617h-1.491V64h1.722v-5.46c0-1.701.609-3.57 2.856-3.57h.861v-1.68h-.483zm6.715 10.836c3.129 0 5.313-2.226 5.313-5.481s-2.184-5.481-5.313-5.481c-3.129 0-5.313 2.226-5.313 5.481s2.184 5.481 5.313 5.481zm0-1.533c-2.121 0-3.549-1.659-3.549-3.948 0-2.289 1.428-3.948 3.549-3.948s3.549 1.659 3.549 3.948c0 2.289-1.428 3.948-3.549 3.948zm19.657-9.429c-1.911 0-3.066.882-3.717 2.037-.609-1.365-1.89-2.037-3.381-2.037-1.659 0-2.562.819-3.129 1.596l-.231-1.47h-1.491V64h1.722v-5.649c0-2.142 1.071-3.612 2.835-3.612 1.638 0 2.583 1.092 2.583 3.192V64h1.722v-5.733c0-2.184 1.092-3.528 2.877-3.528 1.617 0 2.541 1.092 2.541 3.192V64h1.722v-6.174c0-3.381-1.827-4.662-4.053-4.662zm12.079 0c-1.806 0-2.961.861-3.675 1.848l-.231-1.722h-1.491V68.2h1.722v-5.838c.651 1.029 1.869 1.764 3.675 1.764 2.961 0 5.145-2.205 5.145-5.481 0-3.486-2.184-5.481-5.145-5.481zm-.168 9.429c-2.1 0-3.528-1.638-3.528-3.99 0-2.289 1.428-3.906 3.528-3.906 2.121 0 3.549 1.617 3.549 3.948s-1.428 3.948-3.549 3.948zm8.375-1.386c0 1.89.735 2.793 2.793 2.793h1.869v-1.575h-1.701c-.924 0-1.239-.336-1.239-1.239v-6.321h2.772V53.29h-2.772v-3.003h-1.722v3.003h-1.932v1.575h1.932v6.342zM206.749 376.126c3.318 0 5.754-1.89 6.3-4.935h-1.932c-.546 2.058-2.121 3.255-4.389 3.255-3.087 0-4.977-2.415-4.977-5.796 0-3.402 1.974-5.796 5.061-5.796 2.205 0 3.759 1.218 4.326 3.255h1.932c-.546-3.045-2.919-4.935-6.174-4.935-4.263 0-7.014 3.024-7.014 7.476 0 4.494 2.646 7.476 6.867 7.476zm13.609 0c3.129 0 5.313-2.226 5.313-5.481s-2.184-5.481-5.313-5.481c-3.129 0-5.313 2.226-5.313 5.481s2.184 5.481 5.313 5.481zm0-1.533c-2.121 0-3.549-1.659-3.549-3.948 0-2.289 1.428-3.948 3.549-3.948s3.549 1.659 3.549 3.948c0 2.289-1.428 3.948-3.549 3.948zm19.657-9.429c-1.911 0-3.066.882-3.717 2.037-.609-1.365-1.89-2.037-3.381-2.037-1.659 0-2.562.819-3.129 1.596l-.231-1.47h-1.491V376h1.722v-5.649c0-2.142 1.071-3.612 2.835-3.612 1.638 0 2.583 1.092 2.583 3.192V376h1.722v-5.733c0-2.184 1.092-3.528 2.877-3.528 1.617 0 2.541 1.092 2.541 3.192V376h1.722v-6.174c0-3.381-1.827-4.662-4.053-4.662zm12.079 0c-1.806 0-2.961.861-3.675 1.848l-.231-1.722h-1.491v14.91h1.722v-5.838c.651 1.029 1.869 1.764 3.675 1.764 2.961 0 5.145-2.205 5.145-5.481 0-3.486-2.184-5.481-5.145-5.481zm-.168 9.429c-2.1 0-3.528-1.638-3.528-3.99 0-2.289 1.428-3.906 3.528-3.906 2.121 0 3.549 1.617 3.549 3.948s-1.428 3.948-3.549 3.948zm7.701 1.407h1.722v-14.7h-1.722V376zm9.436.126c2.478 0 4.242-1.575 4.662-3.717h-1.743c-.357 1.386-1.533 2.184-3.045 2.184-2.037 0-3.318-1.428-3.381-3.465v-.147h8.316c.021-.252.042-.504.042-.735-.084-3.171-2.058-5.082-5.082-5.082s-5.082 2.226-5.082 5.481c0 3.276 2.1 5.481 5.313 5.481zm-3.402-6.573c.168-1.743 1.617-2.877 3.192-2.877 1.785 0 3.045 1.029 3.213 2.877h-6.405zm11.312 3.654c0 1.89.735 2.793 2.793 2.793h1.869v-1.575h-1.701c-.924 0-1.239-.336-1.239-1.239v-6.321h2.772v-1.575h-2.772v-3.003h-1.722v3.003h-1.932v1.575h1.932v6.342zm7.457-9.723c.63 0 1.113-.462 1.113-1.113s-.483-1.113-1.113-1.113-1.113.462-1.113 1.113.483 1.113 1.113 1.113zM283.548 376h1.722v-10.71h-1.722V376zm9.436.126c3.129 0 5.313-2.226 5.313-5.481s-2.184-5.481-5.313-5.481c-3.129 0-5.313 2.226-5.313 5.481s2.184 5.481 5.313 5.481zm0-1.533c-2.121 0-3.549-1.659-3.549-3.948 0-2.289 1.428-3.948 3.549-3.948s3.549 1.659 3.549 3.948c0 2.289-1.428 3.948-3.549 3.948zm12.957-9.429c-1.806 0-2.898.756-3.528 1.575l-.231-1.449h-1.491V376h1.722v-5.355c0-2.415 1.218-3.906 3.234-3.906 1.869 0 2.898 1.176 2.898 3.402V376h1.722v-5.964c0-3.549-1.911-4.872-4.326-4.872z" fill="#262626"/><rect x="199" y="78" width="326" height="237" rx="4" fill="#EBEBF8"/><rect x="199" y="390" width="299" height="64" rx="4" fill="#917EF3"/><rect x="214" y="155" width="114" height="21" rx="10" fill="#333293" fill-opacity=".3"/><rect x="336" y="154" width="177" height="21" rx="10" fill="#333293" fill-opacity=".1"/><rect x="336" y="282" width="177" height="21" rx="10" fill="#917EF3"/><rect x="214" y="126" width="71" height="21" rx="10" fill="#333293" fill-opacity=".7"/><rect x="291" y="126" width="222" height="21" rx="10" fill="#333293" fill-opacity=".1"/><rect x="293" y="190" width="222" height="21" rx="10" fill="#333293" fill-opacity=".1"/><rect x="214" y="90" width="299" height="21" rx="10" fill="#333293" fill-opacity=".4"/><path d="M601.526 247h1.392v-11.2h-1.392V247zm7.851-8.256c-1.376 0-2.208.576-2.688 1.2l-.176-1.104h-1.136V247h1.312v-4.08c0-1.84.928-2.976 2.464-2.976 1.424 0 2.208.896 2.208 2.592V247h1.312v-4.544c0-2.704-1.456-3.712-3.296-3.712zm9.561 0c-1.376 0-2.256.656-2.8 1.408l-.176-1.312h-1.136v11.36h1.312v-4.448c.496.784 1.424 1.344 2.8 1.344 2.256 0 3.92-1.68 3.92-4.176 0-2.656-1.664-4.176-3.92-4.176zm-.128 7.184c-1.6 0-2.688-1.248-2.688-3.04 0-1.744 1.088-2.976 2.688-2.976 1.616 0 2.704 1.232 2.704 3.008s-1.088 3.008-2.704 3.008zm11.739-3.008c0 1.84-.896 2.976-2.384 2.976-1.36 0-2.128-.896-2.128-2.592v-4.464h-1.312v4.544c0 2.704 1.424 3.712 3.216 3.712 1.344 0 2.128-.576 2.608-1.184l.176 1.088h1.136v-8.16h-1.312v4.08zm4.22 1.952c0 1.44.56 2.128 2.128 2.128h1.424v-1.2h-1.296c-.704 0-.944-.256-.944-.944v-4.816h2.112v-1.2h-2.112v-2.288h-1.312v2.288h-1.472v1.2h1.472v4.832zM605.738 397.4c0-3.296-2.192-5.696-5.344-5.696s-5.344 2.4-5.344 5.696 2.192 5.696 5.344 5.696 5.344-2.4 5.344-5.696zm-9.264 0c0-2.576 1.584-4.416 3.92-4.416s3.92 1.84 3.92 4.416c0 2.576-1.584 4.416-3.92 4.416s-3.92-1.84-3.92-4.416zm17.023 1.52c0 1.84-.896 2.976-2.384 2.976-1.36 0-2.128-.896-2.128-2.592v-4.464h-1.312v4.544c0 2.704 1.424 3.712 3.216 3.712 1.344 0 2.128-.576 2.608-1.184l.176 1.088h1.136v-8.16h-1.312v4.08zm4.22 1.952c0 1.44.56 2.128 2.128 2.128h1.424v-1.2h-1.296c-.704 0-.944-.256-.944-.944v-4.816h2.112v-1.2h-2.112v-2.288h-1.312v2.288h-1.472v1.2h1.472v4.832zm9.281-6.128c-1.376 0-2.256.656-2.8 1.408l-.176-1.312h-1.136v11.36h1.312v-4.448c.496.784 1.424 1.344 2.8 1.344 2.256 0 3.92-1.68 3.92-4.176 0-2.656-1.664-4.176-3.92-4.176zm-.128 7.184c-1.6 0-2.688-1.248-2.688-3.04 0-1.744 1.088-2.976 2.688-2.976 1.616 0 2.704 1.232 2.704 3.008s-1.088 3.008-2.704 3.008zm11.739-3.008c0 1.84-.896 2.976-2.384 2.976-1.36 0-2.128-.896-2.128-2.592v-4.464h-1.312v4.544c0 2.704 1.424 3.712 3.216 3.712 1.344 0 2.128-.576 2.608-1.184l.176 1.088h1.136v-8.16h-1.312v4.08zm4.22 1.952c0 1.44.56 2.128 2.128 2.128h1.424v-1.2h-1.296c-.704 0-.944-.256-.944-.944v-4.816h2.112v-1.2h-2.112v-2.288h-1.312v2.288h-1.472v1.2h1.472v4.832z" fill="#262626"/><path d="M498 422l206 1" stroke="#000" stroke-width="1.5" stroke-linecap="round" stroke-dasharray="0.5 8"/><circle cx="498" cy="422" fill="#333293" r="7"/><path d="M224.28 162.32h3.178V171h1.218v-8.68h3.178v-1.12h-7.574v1.12zm12.699 1.456c-1.204 0-1.932.588-2.352 1.26V161.2h-1.148v9.8h1.148v-3.57c0-1.61.826-2.604 2.156-2.604 1.232 0 1.946.784 1.946 2.268V171h1.148v-3.976c0-2.366-1.302-3.248-2.898-3.248zm5.509-1.12c.42 0 .742-.308.742-.742a.721.721 0 00-.742-.742.721.721 0 00-.742.742c0 .434.322.742.742.742zM241.9 171h1.148v-7.14H241.9V171zm2.987-2.352c.028 1.568 1.302 2.436 3.15 2.436 1.582 0 2.856-.826 2.856-2.156 0-1.582-1.302-1.89-2.926-2.086-1.036-.126-1.792-.224-1.792-1.008 0-.658.672-1.078 1.666-1.078.98 0 1.652.546 1.736 1.274h1.176c-.112-1.484-1.288-2.24-2.912-2.254-1.61-.014-2.8.84-2.8 2.142 0 1.484 1.274 1.806 2.87 2.002 1.064.126 1.848.196 1.848 1.092 0 .658-.714 1.092-1.722 1.092-1.19 0-1.932-.616-1.974-1.456h-1.176zm15.368-4.788c-1.274 0-1.82.532-2.156 1.078l-.154-1.078h-.994V171h1.148v-3.64c0-1.134.406-2.38 1.904-2.38h.574v-1.12h-.322zm4.757 7.224c1.652 0 2.828-1.05 3.108-2.478h-1.162c-.238.924-1.022 1.456-2.03 1.456-1.358 0-2.212-.952-2.254-2.31v-.098h5.544c.014-.168.028-.336.028-.49-.056-2.114-1.372-3.388-3.388-3.388s-3.388 1.484-3.388 3.654c0 2.184 1.4 3.654 3.542 3.654zm-2.268-4.382c.112-1.162 1.078-1.918 2.128-1.918 1.19 0 2.03.686 2.142 1.918h-4.27zm9.018 4.298h1.386l2.674-7.14h-1.204l-2.142 5.838-2.156-5.838h-1.232l2.674 7.14zm6.065-8.344c.42 0 .742-.308.742-.742a.721.721 0 00-.742-.742.721.721 0 00-.742.742c0 .434.322.742.742.742zm-.588 8.344h1.148v-7.14h-1.148V171zm6.57.084c1.652 0 2.828-1.05 3.108-2.478h-1.162c-.238.924-1.022 1.456-2.03 1.456-1.358 0-2.212-.952-2.254-2.31v-.098h5.544c.014-.168.028-.336.028-.49-.056-2.114-1.372-3.388-3.388-3.388s-3.388 1.484-3.388 3.654c0 2.184 1.4 3.654 3.542 3.654zm-2.268-4.382c.112-1.162 1.078-1.918 2.128-1.918 1.19 0 2.03.686 2.142 1.918h-4.27zm8.778 4.298h1.26l1.792-5.306 1.722 5.306h1.26l2.38-7.14h-1.162l-1.862 5.81-1.778-5.81h-1.064l-1.876 5.81-1.778-5.81h-1.204l2.31 7.14zm14.685-8.344c.42 0 .742-.308.742-.742a.721.721 0 00-.742-.742.721.721 0 00-.742.742c0 .434.322.742.742.742zm-.588 8.344h1.148v-7.14h-1.148V171zm2.987-2.352c.028 1.568 1.302 2.436 3.15 2.436 1.582 0 2.856-.826 2.856-2.156 0-1.582-1.302-1.89-2.926-2.086-1.036-.126-1.792-.224-1.792-1.008 0-.658.672-1.078 1.666-1.078.98 0 1.652.546 1.736 1.274h1.176c-.112-1.484-1.288-2.24-2.912-2.254-1.61-.014-2.8.84-2.8 2.142 0 1.484 1.274 1.806 2.87 2.002 1.064.126 1.848.196 1.848 1.092 0 .658-.714 1.092-1.722 1.092-1.19 0-1.932-.616-1.974-1.456h-1.176zm7.7-3.598c0 .476.336.784.798.784s.798-.308.798-.784c0-.476-.336-.784-.798-.784s-.798.308-.798.784zm0 5.25c0 .476.336.784.798.784s.798-.308.798-.784c0-.476-.336-.784-.798-.784s-.798.308-.798.784z" fill="#2B2649"/><rect x="293" y="254" width="220" height="21" rx="10" fill="#333293" fill-opacity=".1"/><rect x="214" y="219" width="114" height="21" rx="10" fill="#333293" fill-opacity=".3"/><path d="M224.28 226.32h3.178V235h1.218v-8.68h3.178v-1.12h-7.574v1.12zm12.699 1.456c-1.204 0-1.932.588-2.352 1.26V225.2h-1.148v9.8h1.148v-3.57c0-1.61.826-2.604 2.156-2.604 1.232 0 1.946.784 1.946 2.268V235h1.148v-3.976c0-2.366-1.302-3.248-2.898-3.248zm5.509-1.12c.42 0 .742-.308.742-.742a.721.721 0 00-.742-.742.721.721 0 00-.742.742c0 .434.322.742.742.742zM241.9 235h1.148v-7.14H241.9V235zm2.987-2.352c.028 1.568 1.302 2.436 3.15 2.436 1.582 0 2.856-.826 2.856-2.156 0-1.582-1.302-1.89-2.926-2.086-1.036-.126-1.792-.224-1.792-1.008 0-.658.672-1.078 1.666-1.078.98 0 1.652.546 1.736 1.274h1.176c-.112-1.484-1.288-2.24-2.912-2.254-1.61-.014-2.8.84-2.8 2.142 0 1.484 1.274 1.806 2.87 2.002 1.064.126 1.848.196 1.848 1.092 0 .658-.714 1.092-1.722 1.092-1.19 0-1.932-.616-1.974-1.456h-1.176zm15.368-4.788c-1.274 0-1.82.532-2.156 1.078l-.154-1.078h-.994V235h1.148v-3.64c0-1.134.406-2.38 1.904-2.38h.574v-1.12h-.322zm4.757 7.224c1.652 0 2.828-1.05 3.108-2.478h-1.162c-.238.924-1.022 1.456-2.03 1.456-1.358 0-2.212-.952-2.254-2.31v-.098h5.544c.014-.168.028-.336.028-.49-.056-2.114-1.372-3.388-3.388-3.388s-3.388 1.484-3.388 3.654c0 2.184 1.4 3.654 3.542 3.654zm-2.268-4.382c.112-1.162 1.078-1.918 2.128-1.918 1.19 0 2.03.686 2.142 1.918h-4.27zm9.018 4.298h1.386l2.674-7.14h-1.204l-2.142 5.838-2.156-5.838h-1.232l2.674 7.14zm6.065-8.344c.42 0 .742-.308.742-.742a.721.721 0 00-.742-.742.721.721 0 00-.742.742c0 .434.322.742.742.742zm-.588 8.344h1.148v-7.14h-1.148V235zm6.57.084c1.652 0 2.828-1.05 3.108-2.478h-1.162c-.238.924-1.022 1.456-2.03 1.456-1.358 0-2.212-.952-2.254-2.31v-.098h5.544c.014-.168.028-.336.028-.49-.056-2.114-1.372-3.388-3.388-3.388s-3.388 1.484-3.388 3.654c0 2.184 1.4 3.654 3.542 3.654zm-2.268-4.382c.112-1.162 1.078-1.918 2.128-1.918 1.19 0 2.03.686 2.142 1.918h-4.27zm8.778 4.298h1.26l1.792-5.306 1.722 5.306h1.26l2.38-7.14h-1.162l-1.862 5.81-1.778-5.81h-1.064l-1.876 5.81-1.778-5.81h-1.204l2.31 7.14zm14.685-8.344c.42 0 .742-.308.742-.742a.721.721 0 00-.742-.742.721.721 0 00-.742.742c0 .434.322.742.742.742zm-.588 8.344h1.148v-7.14h-1.148V235zm2.987-2.352c.028 1.568 1.302 2.436 3.15 2.436 1.582 0 2.856-.826 2.856-2.156 0-1.582-1.302-1.89-2.926-2.086-1.036-.126-1.792-.224-1.792-1.008 0-.658.672-1.078 1.666-1.078.98 0 1.652.546 1.736 1.274h1.176c-.112-1.484-1.288-2.24-2.912-2.254-1.61-.014-2.8.84-2.8 2.142 0 1.484 1.274 1.806 2.87 2.002 1.064.126 1.848.196 1.848 1.092 0 .658-.714 1.092-1.722 1.092-1.19 0-1.932-.616-1.974-1.456h-1.176zm7.7-3.598c0 .476.336.784.798.784s.798-.308.798-.784c0-.476-.336-.784-.798-.784s-.798.308-.798.784zm0 5.25c0 .476.336.784.798.784s.798-.308.798-.784c0-.476-.336-.784-.798-.784s-.798.308-.798.784z" fill="#2B2649"/><rect x="214" y="283" width="114" height="21" rx="10" fill="#333293" fill-opacity=".3"/><path d="M224.28 290.32h3.178V299h1.218v-8.68h3.178v-1.12h-7.574v1.12zm12.699 1.456c-1.204 0-1.932.588-2.352 1.26V289.2h-1.148v9.8h1.148v-3.57c0-1.61.826-2.604 2.156-2.604 1.232 0 1.946.784 1.946 2.268V299h1.148v-3.976c0-2.366-1.302-3.248-2.898-3.248zm5.509-1.12c.42 0 .742-.308.742-.742a.721.721 0 00-.742-.742.721.721 0 00-.742.742c0 .434.322.742.742.742zM241.9 299h1.148v-7.14H241.9V299zm2.987-2.352c.028 1.568 1.302 2.436 3.15 2.436 1.582 0 2.856-.826 2.856-2.156 0-1.582-1.302-1.89-2.926-2.086-1.036-.126-1.792-.224-1.792-1.008 0-.658.672-1.078 1.666-1.078.98 0 1.652.546 1.736 1.274h1.176c-.112-1.484-1.288-2.24-2.912-2.254-1.61-.014-2.8.84-2.8 2.142 0 1.484 1.274 1.806 2.87 2.002 1.064.126 1.848.196 1.848 1.092 0 .658-.714 1.092-1.722 1.092-1.19 0-1.932-.616-1.974-1.456h-1.176zm15.368-4.788c-1.274 0-1.82.532-2.156 1.078l-.154-1.078h-.994V299h1.148v-3.64c0-1.134.406-2.38 1.904-2.38h.574v-1.12h-.322zm4.757 7.224c1.652 0 2.828-1.05 3.108-2.478h-1.162c-.238.924-1.022 1.456-2.03 1.456-1.358 0-2.212-.952-2.254-2.31v-.098h5.544c.014-.168.028-.336.028-.49-.056-2.114-1.372-3.388-3.388-3.388s-3.388 1.484-3.388 3.654c0 2.184 1.4 3.654 3.542 3.654zm-2.268-4.382c.112-1.162 1.078-1.918 2.128-1.918 1.19 0 2.03.686 2.142 1.918h-4.27zm9.018 4.298h1.386l2.674-7.14h-1.204l-2.142 5.838-2.156-5.838h-1.232l2.674 7.14zm6.065-8.344c.42 0 .742-.308.742-.742a.721.721 0 00-.742-.742.721.721 0 00-.742.742c0 .434.322.742.742.742zm-.588 8.344h1.148v-7.14h-1.148V299zm6.57.084c1.652 0 2.828-1.05 3.108-2.478h-1.162c-.238.924-1.022 1.456-2.03 1.456-1.358 0-2.212-.952-2.254-2.31v-.098h5.544c.014-.168.028-.336.028-.49-.056-2.114-1.372-3.388-3.388-3.388s-3.388 1.484-3.388 3.654c0 2.184 1.4 3.654 3.542 3.654zm-2.268-4.382c.112-1.162 1.078-1.918 2.128-1.918 1.19 0 2.03.686 2.142 1.918h-4.27zm8.778 4.298h1.26l1.792-5.306 1.722 5.306h1.26l2.38-7.14h-1.162l-1.862 5.81-1.778-5.81h-1.064l-1.876 5.81-1.778-5.81h-1.204l2.31 7.14zm14.685-8.344c.42 0 .742-.308.742-.742a.721.721 0 00-.742-.742.721.721 0 00-.742.742c0 .434.322.742.742.742zm-.588 8.344h1.148v-7.14h-1.148V299zm2.987-2.352c.028 1.568 1.302 2.436 3.15 2.436 1.582 0 2.856-.826 2.856-2.156 0-1.582-1.302-1.89-2.926-2.086-1.036-.126-1.792-.224-1.792-1.008 0-.658.672-1.078 1.666-1.078.98 0 1.652.546 1.736 1.274h1.176c-.112-1.484-1.288-2.24-2.912-2.254-1.61-.014-2.8.84-2.8 2.142 0 1.484 1.274 1.806 2.87 2.002 1.064.126 1.848.196 1.848 1.092 0 .658-.714 1.092-1.722 1.092-1.19 0-1.932-.616-1.974-1.456h-1.176zm7.7-3.598c0 .476.336.784.798.784s.798-.308.798-.784c0-.476-.336-.784-.798-.784s-.798.308-.798.784zm0 5.25c0 .476.336.784.798.784s.798-.308.798-.784c0-.476-.336-.784-.798-.784s-.798.308-.798.784z" fill="#2B2649"/><path d="M319.952 428h1.218v-3.766h2.548c1.96 0 3.248-1.19 3.248-3.024s-1.288-3.01-3.248-3.01h-3.766v9.8zm3.668-8.68c1.288 0 2.1.728 2.1 1.89s-.826 1.904-2.114 1.904h-2.436v-3.794h2.45zm7.957 8.764c2.086 0 3.542-1.484 3.542-3.654s-1.456-3.654-3.542-3.654-3.542 1.484-3.542 3.654 1.456 3.654 3.542 3.654zm0-1.022c-1.414 0-2.366-1.106-2.366-2.632s.952-2.632 2.366-2.632c1.414 0 2.366 1.106 2.366 2.632s-.952 2.632-2.366 2.632zm5.097-1.414c.028 1.568 1.302 2.436 3.15 2.436 1.582 0 2.856-.826 2.856-2.156 0-1.582-1.302-1.89-2.926-2.086-1.036-.126-1.792-.224-1.792-1.008 0-.658.672-1.078 1.666-1.078.98 0 1.652.546 1.736 1.274h1.176c-.112-1.484-1.288-2.24-2.912-2.254-1.61-.014-2.8.84-2.8 2.142 0 1.484 1.274 1.806 2.87 2.002 1.064.126 1.848.196 1.848 1.092 0 .658-.714 1.092-1.722 1.092-1.19 0-1.932-.616-1.974-1.456h-1.176zm8.429-5.992c.42 0 .742-.308.742-.742a.721.721 0 00-.742-.742.721.721 0 00-.742.742c0 .434.322.742.742.742zm-.588 8.344h1.148v-7.14h-1.148V428zm3.812-1.862c0 1.26.49 1.862 1.862 1.862h1.246v-1.05h-1.134c-.616 0-.826-.224-.826-.826v-4.214h1.848v-1.05h-1.848v-2.002h-1.148v2.002h-1.288v1.05h1.288v4.228zm5.251-6.482c.42 0 .742-.308.742-.742a.721.721 0 00-.742-.742.721.721 0 00-.742.742c0 .434.322.742.742.742zM352.99 428h1.148v-7.14h-1.148V428zm5.241 0h1.386l2.674-7.14h-1.204l-2.142 5.838-2.156-5.838h-1.232l2.674 7.14zm8.452.084c1.652 0 2.828-1.05 3.108-2.478h-1.162c-.238.924-1.022 1.456-2.03 1.456-1.358 0-2.212-.952-2.254-2.31v-.098h5.544c.014-.168.028-.336.028-.49-.056-2.114-1.372-3.388-3.388-3.388s-3.388 1.484-3.388 3.654c0 2.184 1.4 3.654 3.542 3.654zm-2.268-4.382c.112-1.162 1.078-1.918 2.128-1.918 1.19 0 2.03.686 2.142 1.918h-4.27z" fill="#F1F1F7"/><path d="M346.952 170h1.218v-3.766h2.548c1.96 0 3.248-1.19 3.248-3.024s-1.288-3.01-3.248-3.01h-3.766v9.8zm3.668-8.68c1.288 0 2.1.728 2.1 1.89s-.826 1.904-2.114 1.904h-2.436v-3.794h2.45zm7.957 8.764c2.086 0 3.542-1.484 3.542-3.654s-1.456-3.654-3.542-3.654-3.542 1.484-3.542 3.654 1.456 3.654 3.542 3.654zm0-1.022c-1.414 0-2.366-1.106-2.366-2.632s.952-2.632 2.366-2.632c1.414 0 2.366 1.106 2.366 2.632s-.952 2.632-2.366 2.632zm5.097-1.414c.028 1.568 1.302 2.436 3.15 2.436 1.582 0 2.856-.826 2.856-2.156 0-1.582-1.302-1.89-2.926-2.086-1.036-.126-1.792-.224-1.792-1.008 0-.658.672-1.078 1.666-1.078.98 0 1.652.546 1.736 1.274h1.176c-.112-1.484-1.288-2.24-2.912-2.254-1.61-.014-2.8.84-2.8 2.142 0 1.484 1.274 1.806 2.87 2.002 1.064.126 1.848.196 1.848 1.092 0 .658-.714 1.092-1.722 1.092-1.19 0-1.932-.616-1.974-1.456h-1.176zm8.429-5.992c.42 0 .742-.308.742-.742a.721.721 0 00-.742-.742.721.721 0 00-.742.742c0 .434.322.742.742.742zm-.588 8.344h1.148v-7.14h-1.148V170zm3.812-1.862c0 1.26.49 1.862 1.862 1.862h1.246v-1.05h-1.134c-.616 0-.826-.224-.826-.826v-4.214h1.848v-1.05h-1.848v-2.002h-1.148v2.002h-1.288v1.05h1.288v4.228zm5.251-6.482c.42 0 .742-.308.742-.742a.721.721 0 00-.742-.742.721.721 0 00-.742.742c0 .434.322.742.742.742zM379.99 170h1.148v-7.14h-1.148V170zm5.241 0h1.386l2.674-7.14h-1.204l-2.142 5.838-2.156-5.838h-1.232l2.674 7.14zm8.452.084c1.652 0 2.828-1.05 3.108-2.478h-1.162c-.238.924-1.022 1.456-2.03 1.456-1.358 0-2.212-.952-2.254-2.31v-.098h5.544c.014-.168.028-.336.028-.49-.056-2.114-1.372-3.388-3.388-3.388s-3.388 1.484-3.388 3.654c0 2.184 1.4 3.654 3.542 3.654zm-2.268-4.382c.112-1.162 1.078-1.918 2.128-1.918 1.19 0 2.03.686 2.142 1.918h-4.27z" fill="#2B2649"/><rect x="336" y="219" width="177" height="21" rx="10" fill="#333293" fill-opacity=".1"/><path d="M348.142 235v-7.56l5.264 7.56h1.12v-9.8h-1.19v7.56l-5.264-7.56h-1.12v9.8h1.19zm11.967.084c1.652 0 2.828-1.05 3.108-2.478h-1.162c-.238.924-1.022 1.456-2.03 1.456-1.358 0-2.212-.952-2.254-2.31v-.098h5.544c.014-.168.028-.336.028-.49-.056-2.114-1.372-3.388-3.388-3.388s-3.388 1.484-3.388 3.654c0 2.184 1.4 3.654 3.542 3.654zm-2.268-4.382c.112-1.162 1.078-1.918 2.128-1.918 1.19 0 2.03.686 2.142 1.918h-4.27zm13-1.61c-.448-.798-1.246-1.316-2.45-1.316-1.974 0-3.43 1.47-3.43 3.654 0 2.324 1.456 3.654 3.43 3.654 1.204 0 1.974-.504 2.45-1.316v.84c0 1.554-.812 2.254-2.31 2.254-1.19 0-1.988-.504-2.184-1.4h-1.176c.182 1.568 1.456 2.422 3.276 2.422 2.45 0 3.542-1.176 3.542-3.234v-6.79h-.994l-.154 1.232zm-2.338 4.97c-1.414 0-2.366-1.078-2.366-2.632s.952-2.632 2.366-2.632c1.4 0 2.352 1.092 2.352 2.66 0 1.526-.952 2.604-2.352 2.604zm11.923-.112c-.322 0-.462-.098-.462-.476v-3.122c0-1.666-1.05-2.576-2.87-2.576-1.722 0-2.856.826-3.024 2.226h1.148c.14-.728.812-1.204 1.82-1.204 1.12 0 1.778.56 1.778 1.484v.49h-2.1c-1.876 0-2.87.798-2.87 2.226 0 1.302 1.064 2.086 2.632 2.086 1.232 0 1.946-.546 2.394-1.19.014.7.336 1.106 1.288 1.106h.63v-1.05h-.364zm-1.61-1.862c0 1.19-.826 2.016-2.254 2.016-.952 0-1.554-.476-1.554-1.176 0-.812.574-1.19 1.596-1.19h2.212v.35zm3.949 1.05c0 1.26.49 1.862 1.862 1.862h1.246v-1.05h-1.134c-.616 0-.826-.224-.826-.826v-4.214h1.848v-1.05h-1.848v-2.002h-1.148v2.002h-1.288v1.05h1.288v4.228zm5.251-6.482c.42 0 .742-.308.742-.742a.721.721 0 00-.742-.742.721.721 0 00-.742.742c0 .434.322.742.742.742zm-.588 8.344h1.148v-7.14h-1.148V235zm5.24 0h1.386l2.674-7.14h-1.204l-2.142 5.838-2.156-5.838h-1.232l2.674 7.14zm8.453.084c1.652 0 2.828-1.05 3.108-2.478h-1.162c-.238.924-1.022 1.456-2.03 1.456-1.358 0-2.212-.952-2.254-2.31v-.098h5.544c.014-.168.028-.336.028-.49-.056-2.114-1.372-3.388-3.388-3.388s-3.388 1.484-3.388 3.654c0 2.184 1.4 3.654 3.542 3.654zm-2.268-4.382c.112-1.162 1.078-1.918 2.128-1.918 1.19 0 2.03.686 2.142 1.918h-4.27z" fill="#2B2649"/><path d="M224.952 142h1.218v-3.766h2.464l2.072 3.766h1.372l-2.198-4.004c1.26-.35 2.086-1.414 2.086-2.786 0-1.834-1.302-3.01-3.262-3.01h-3.752v9.8zm3.668-8.68c1.274 0 2.1.742 2.1 1.89s-.826 1.904-2.114 1.904h-2.436v-3.794h2.45zm8.203 8.764c1.652 0 2.828-1.05 3.108-2.478h-1.162c-.238.924-1.022 1.456-2.03 1.456-1.358 0-2.212-.952-2.254-2.31v-.098h5.544c.014-.168.028-.336.028-.49-.056-2.114-1.372-3.388-3.388-3.388s-3.388 1.484-3.388 3.654c0 2.184 1.4 3.654 3.542 3.654zm-2.268-4.382c.112-1.162 1.078-1.918 2.128-1.918 1.19 0 2.03.686 2.142 1.918h-4.27zm9.018 4.298h1.386l2.674-7.14h-1.204l-2.142 5.838-2.156-5.838h-1.232l2.674 7.14zm6.065-8.344c.42 0 .742-.308.742-.742a.721.721 0 00-.742-.742.721.721 0 00-.742.742c0 .434.322.742.742.742zM249.05 142h1.148v-7.14h-1.148V142zm6.571.084c1.652 0 2.828-1.05 3.108-2.478h-1.162c-.238.924-1.022 1.456-2.03 1.456-1.358 0-2.212-.952-2.254-2.31v-.098h5.544c.014-.168.028-.336.028-.49-.056-2.114-1.372-3.388-3.388-3.388s-3.388 1.484-3.388 3.654c0 2.184 1.4 3.654 3.542 3.654zm-2.268-4.382c.112-1.162 1.078-1.918 2.128-1.918 1.19 0 2.03.686 2.142 1.918h-4.27zM262.13 142h1.26l1.792-5.306 1.722 5.306h1.26l2.38-7.14h-1.162l-1.862 5.81-1.778-5.81h-1.064l-1.876 5.81-1.778-5.81h-1.204l2.31 7.14zm9.733-5.95c0 .476.336.784.798.784s.798-.308.798-.784c0-.476-.336-.784-.798-.784s-.798.308-.798.784zm0 5.25c0 .476.336.784.798.784s.798-.308.798-.784c0-.476-.336-.784-.798-.784s-.798.308-.798.784z" fill="#FBFBFB"/><rect x="214" y="190" width="71" height="21" rx="10" fill="#333293" fill-opacity=".7"/><path d="M224.952 206h1.218v-3.766h2.464l2.072 3.766h1.372l-2.198-4.004c1.26-.35 2.086-1.414 2.086-2.786 0-1.834-1.302-3.01-3.262-3.01h-3.752v9.8zm3.668-8.68c1.274 0 2.1.742 2.1 1.89s-.826 1.904-2.114 1.904h-2.436v-3.794h2.45zm8.203 8.764c1.652 0 2.828-1.05 3.108-2.478h-1.162c-.238.924-1.022 1.456-2.03 1.456-1.358 0-2.212-.952-2.254-2.31v-.098h5.544c.014-.168.028-.336.028-.49-.056-2.114-1.372-3.388-3.388-3.388s-3.388 1.484-3.388 3.654c0 2.184 1.4 3.654 3.542 3.654zm-2.268-4.382c.112-1.162 1.078-1.918 2.128-1.918 1.19 0 2.03.686 2.142 1.918h-4.27zm9.018 4.298h1.386l2.674-7.14h-1.204l-2.142 5.838-2.156-5.838h-1.232l2.674 7.14zm6.065-8.344c.42 0 .742-.308.742-.742a.721.721 0 00-.742-.742.721.721 0 00-.742.742c0 .434.322.742.742.742zM249.05 206h1.148v-7.14h-1.148V206zm6.571.084c1.652 0 2.828-1.05 3.108-2.478h-1.162c-.238.924-1.022 1.456-2.03 1.456-1.358 0-2.212-.952-2.254-2.31v-.098h5.544c.014-.168.028-.336.028-.49-.056-2.114-1.372-3.388-3.388-3.388s-3.388 1.484-3.388 3.654c0 2.184 1.4 3.654 3.542 3.654zm-2.268-4.382c.112-1.162 1.078-1.918 2.128-1.918 1.19 0 2.03.686 2.142 1.918h-4.27zM262.13 206h1.26l1.792-5.306 1.722 5.306h1.26l2.38-7.14h-1.162l-1.862 5.81-1.778-5.81h-1.064l-1.876 5.81-1.778-5.81h-1.204l2.31 7.14zm9.733-5.95c0 .476.336.784.798.784s.798-.308.798-.784c0-.476-.336-.784-.798-.784s-.798.308-.798.784zm0 5.25c0 .476.336.784.798.784s.798-.308.798-.784c0-.476-.336-.784-.798-.784s-.798.308-.798.784z" fill="#FBFBFB"/><path d="M301.952 142h1.218v-9.8h-1.218v9.8zm7.733 0h1.148v-9.8h-1.148v9.8zm6.571.084c2.086 0 3.542-1.484 3.542-3.654s-1.456-3.654-3.542-3.654-3.542 1.484-3.542 3.654 1.456 3.654 3.542 3.654zm0-1.022c-1.414 0-2.366-1.106-2.366-2.632s.952-2.632 2.366-2.632c1.414 0 2.366 1.106 2.366 2.632s-.952 2.632-2.366 2.632zm7.064.938h1.386l2.674-7.14h-1.204l-2.142 5.838-2.156-5.838h-1.232l2.674 7.14zm8.452.084c1.652 0 2.828-1.05 3.108-2.478h-1.162c-.238.924-1.022 1.456-2.03 1.456-1.358 0-2.212-.952-2.254-2.31v-.098h5.544c.014-.168.028-.336.028-.49-.056-2.114-1.372-3.388-3.388-3.388s-3.388 1.484-3.388 3.654c0 2.184 1.4 3.654 3.542 3.654zm-2.268-4.382c.112-1.162 1.078-1.918 2.128-1.918 1.19 0 2.03.686 2.142 1.918h-4.27zm13-1.75c-.434-.686-1.246-1.176-2.45-1.176-1.974 0-3.43 1.47-3.43 3.654 0 2.324 1.456 3.654 3.43 3.654 1.204 0 1.974-.574 2.45-1.232l.154 1.148h.994v-9.8h-1.148v3.752zm-2.338 5.11c-1.414 0-2.366-1.078-2.366-2.632s.952-2.632 2.366-2.632c1.4 0 2.352 1.092 2.352 2.66 0 1.526-.952 2.604-2.352 2.604zm10.366-.924c0 1.26.49 1.862 1.862 1.862h1.246v-1.05h-1.134c-.616 0-.826-.224-.826-.826v-4.214h1.848v-1.05h-1.848v-2.002h-1.148v2.002h-1.288v1.05h1.288v4.228zm8.163-5.362c-1.204 0-1.932.588-2.352 1.26V132.2h-1.148v9.8h1.148v-3.57c0-1.61.826-2.604 2.156-2.604 1.232 0 1.946.784 1.946 2.268V142h1.148v-3.976c0-2.366-1.302-3.248-2.898-3.248zm5.509-1.12c.42 0 .742-.308.742-.742a.721.721 0 00-.742-.742.721.721 0 00-.742.742c0 .434.322.742.742.742zm-.588 8.344h1.148v-7.14h-1.148V142zm2.987-2.352c.028 1.568 1.302 2.436 3.15 2.436 1.582 0 2.856-.826 2.856-2.156 0-1.582-1.302-1.89-2.926-2.086-1.036-.126-1.792-.224-1.792-1.008 0-.658.672-1.078 1.666-1.078.98 0 1.652.546 1.736 1.274h1.176c-.112-1.484-1.288-2.24-2.912-2.254-1.61-.014-2.8.84-2.8 2.142 0 1.484 1.274 1.806 2.87 2.002 1.064.126 1.848.196 1.848 1.092 0 .658-.714 1.092-1.722 1.092-1.19 0-1.932-.616-1.974-1.456h-1.176zm20.031-4.872c-1.274 0-2.044.588-2.478 1.358-.406-.91-1.26-1.358-2.254-1.358-1.106 0-1.708.546-2.086 1.064l-.154-.98h-.994V142h1.148v-3.766c0-1.428.714-2.408 1.89-2.408 1.092 0 1.722.728 1.722 2.128V142h1.148v-3.822c0-1.456.728-2.352 1.918-2.352 1.078 0 1.694.728 1.694 2.128V142h1.148v-4.116c0-2.254-1.218-3.108-2.702-3.108zm7.942 7.308c2.086 0 3.542-1.484 3.542-3.654s-1.456-3.654-3.542-3.654-3.542 1.484-3.542 3.654 1.456 3.654 3.542 3.654zm0-1.022c-1.414 0-2.366-1.106-2.366-2.632s.952-2.632 2.366-2.632c1.414 0 2.366 1.106 2.366 2.632s-.952 2.632-2.366 2.632zm7.064.938h1.386l2.674-7.14h-1.204l-2.142 5.838-2.156-5.838h-1.232l2.674 7.14zm6.065-8.344c.42 0 .742-.308.742-.742a.721.721 0 00-.742-.742.721.721 0 00-.742.742c0 .434.322.742.742.742zm-.588 8.344h1.148v-7.14h-1.148V142zm6.571.084c1.652 0 2.828-1.05 3.108-2.478h-1.162c-.238.924-1.022 1.456-2.03 1.456-1.358 0-2.212-.952-2.254-2.31v-.098h5.544c.014-.168.028-.336.028-.49-.056-2.114-1.372-3.388-3.388-3.388s-3.388 1.484-3.388 3.654c0 2.184 1.4 3.654 3.542 3.654zm-2.268-4.382c.112-1.162 1.078-1.918 2.128-1.918 1.19 0 2.03.686 2.142 1.918h-4.27zm8.786 1.372l.168-6.874h-1.232l.182 6.874h.882zm-1.246 2.226c0 .476.336.784.798.784s.798-.308.798-.784c0-.476-.336-.784-.798-.784s-.798.308-.798.784zM306.08 206h1.456l2.226-7.77 2.24 7.77h1.456l2.87-9.8h-1.26l-2.31 8.232-2.324-8.232h-1.232l-2.408 8.232-2.296-8.232h-1.274l2.856 9.8zm15.313-7.224c-1.204 0-1.932.588-2.352 1.26V196.2h-1.148v9.8h1.148v-3.57c0-1.61.826-2.604 2.156-2.604 1.232 0 1.946.784 1.946 2.268V206h1.148v-3.976c0-2.366-1.302-3.248-2.898-3.248zm11.235 6.174c-.322 0-.462-.098-.462-.476v-3.122c0-1.666-1.05-2.576-2.87-2.576-1.722 0-2.856.826-3.024 2.226h1.148c.14-.728.812-1.204 1.82-1.204 1.12 0 1.778.56 1.778 1.484v.49h-2.1c-1.876 0-2.87.798-2.87 2.226 0 1.302 1.064 2.086 2.632 2.086 1.232 0 1.946-.546 2.394-1.19.014.7.336 1.106 1.288 1.106h.63v-1.05h-.364zm-1.61-1.862c0 1.19-.826 2.016-2.254 2.016-.952 0-1.554-.476-1.554-1.176 0-.812.574-1.19 1.596-1.19h2.212v.35zm3.949 1.05c0 1.26.49 1.862 1.862 1.862h1.246v-1.05h-1.134c-.616 0-.826-.224-.826-.826v-4.214h1.848v-1.05h-1.848v-2.002h-1.148v2.002h-1.288v1.05h1.288v4.228zm15.201.812c-.322 0-.462-.098-.462-.476v-3.122c0-1.666-1.05-2.576-2.87-2.576-1.722 0-2.856.826-3.024 2.226h1.148c.14-.728.812-1.204 1.82-1.204 1.12 0 1.778.56 1.778 1.484v.49h-2.1c-1.876 0-2.87.798-2.87 2.226 0 1.302 1.064 2.086 2.632 2.086 1.232 0 1.946-.546 2.394-1.19.014.7.336 1.106 1.288 1.106h.63v-1.05h-.364zm-1.61-1.862c0 1.19-.826 2.016-2.254 2.016-.952 0-1.554-.476-1.554-1.176 0-.812.574-1.19 1.596-1.19h2.212v.35zm9.278 2.912h1.26l1.792-5.306L362.61 206h1.26l2.38-7.14h-1.162l-1.862 5.81-1.778-5.81h-1.064l-1.876 5.81-1.778-5.81h-1.204l2.31 7.14zm15.928-1.05c-.322 0-.462-.098-.462-.476v-3.122c0-1.666-1.05-2.576-2.87-2.576-1.722 0-2.856.826-3.024 2.226h1.148c.14-.728.812-1.204 1.82-1.204 1.12 0 1.778.56 1.778 1.484v.49h-2.1c-1.876 0-2.87.798-2.87 2.226 0 1.302 1.064 2.086 2.632 2.086 1.232 0 1.946-.546 2.394-1.19.014.7.336 1.106 1.288 1.106h.63v-1.05h-.364zm-1.61-1.862c0 1.19-.826 2.016-2.254 2.016-.952 0-1.554-.476-1.554-1.176 0-.812.574-1.19 1.596-1.19h2.212v.35zm3.122.56c.028 1.568 1.302 2.436 3.15 2.436 1.582 0 2.856-.826 2.856-2.156 0-1.582-1.302-1.89-2.926-2.086-1.036-.126-1.792-.224-1.792-1.008 0-.658.672-1.078 1.666-1.078.98 0 1.652.546 1.736 1.274h1.176c-.112-1.484-1.288-2.24-2.912-2.254-1.61-.014-2.8.84-2.8 2.142 0 1.484 1.274 1.806 2.87 2.002 1.064.126 1.848.196 1.848 1.092 0 .658-.714 1.092-1.722 1.092-1.19 0-1.932-.616-1.974-1.456h-1.176zm8.372.49c0 1.26.49 1.862 1.862 1.862h1.246v-1.05h-1.134c-.616 0-.826-.224-.826-.826v-4.214h1.848v-1.05h-1.848v-2.002h-1.148v2.002h-1.288v1.05h1.288v4.228zm7.775 1.946c1.652 0 2.828-1.05 3.108-2.478h-1.162c-.238.924-1.022 1.456-2.03 1.456-1.358 0-2.212-.952-2.254-2.31v-.098h5.544c.014-.168.028-.336.028-.49-.056-2.114-1.372-3.388-3.388-3.388s-3.388 1.484-3.388 3.654c0 2.184 1.4 3.654 3.542 3.654zm-2.268-4.382c.112-1.162 1.078-1.918 2.128-1.918 1.19 0 2.03.686 2.142 1.918h-4.27zm14.886 4.382c2.086 0 3.542-1.484 3.542-3.654s-1.456-3.654-3.542-3.654-3.542 1.484-3.542 3.654 1.456 3.654 3.542 3.654zm0-1.022c-1.414 0-2.366-1.106-2.366-2.632s.952-2.632 2.366-2.632c1.414 0 2.366 1.106 2.366 2.632s-.952 2.632-2.366 2.632zm4.581-5.152h1.288V206h1.148v-6.09h2.016v-1.05h-2.016v-.826c0-.546.21-.784.784-.784h1.232v-1.05h-1.302c-1.33 0-1.862.602-1.862 1.862v.798h-1.288v1.05zm10.597 4.228c0 1.26.49 1.862 1.862 1.862h1.246v-1.05h-1.134c-.616 0-.826-.224-.826-.826v-4.214h1.848v-1.05h-1.848v-2.002h-1.148v2.002h-1.288v1.05h1.288v4.228zm5.251-6.482c.42 0 .742-.308.742-.742a.721.721 0 00-.742-.742.721.721 0 00-.742.742c0 .434.322.742.742.742zm-.588 8.344h1.148v-7.14h-1.148V206zm11.247-7.224c-1.274 0-2.044.588-2.478 1.358-.406-.91-1.26-1.358-2.254-1.358-1.106 0-1.708.546-2.086 1.064l-.154-.98h-.994V206h1.148v-3.766c0-1.428.714-2.408 1.89-2.408 1.092 0 1.722.728 1.722 2.128V206h1.148v-3.822c0-1.456.728-2.352 1.918-2.352 1.078 0 1.694.728 1.694 2.128V206h1.148v-4.116c0-2.254-1.218-3.108-2.702-3.108zm7.942 7.308c1.652 0 2.828-1.05 3.108-2.478h-1.162c-.238.924-1.022 1.456-2.03 1.456-1.358 0-2.212-.952-2.254-2.31v-.098h5.544c.014-.168.028-.336.028-.49-.056-2.114-1.372-3.388-3.388-3.388s-3.388 1.484-3.388 3.654c0 2.184 1.4 3.654 3.542 3.654zm-2.268-4.382c.112-1.162 1.078-1.918 2.128-1.918 1.19 0 2.03.686 2.142 1.918h-4.27zm6.768 3.598c0 .476.336.784.798.784s.798-.308.798-.784c0-.476-.336-.784-.798-.784s-.798.308-.798.784z" fill="#2B2649"/><rect x="214" y="254" width="71" height="21" rx="10" fill="#333293" fill-opacity=".7"/><path d="M224.952 270h1.218v-3.766h2.464l2.072 3.766h1.372l-2.198-4.004c1.26-.35 2.086-1.414 2.086-2.786 0-1.834-1.302-3.01-3.262-3.01h-3.752v9.8zm3.668-8.68c1.274 0 2.1.742 2.1 1.89s-.826 1.904-2.114 1.904h-2.436v-3.794h2.45zm8.203 8.764c1.652 0 2.828-1.05 3.108-2.478h-1.162c-.238.924-1.022 1.456-2.03 1.456-1.358 0-2.212-.952-2.254-2.31v-.098h5.544c.014-.168.028-.336.028-.49-.056-2.114-1.372-3.388-3.388-3.388s-3.388 1.484-3.388 3.654c0 2.184 1.4 3.654 3.542 3.654zm-2.268-4.382c.112-1.162 1.078-1.918 2.128-1.918 1.19 0 2.03.686 2.142 1.918h-4.27zm9.018 4.298h1.386l2.674-7.14h-1.204l-2.142 5.838-2.156-5.838h-1.232l2.674 7.14zm6.065-8.344c.42 0 .742-.308.742-.742a.721.721 0 00-.742-.742.721.721 0 00-.742.742c0 .434.322.742.742.742zM249.05 270h1.148v-7.14h-1.148V270zm6.571.084c1.652 0 2.828-1.05 3.108-2.478h-1.162c-.238.924-1.022 1.456-2.03 1.456-1.358 0-2.212-.952-2.254-2.31v-.098h5.544c.014-.168.028-.336.028-.49-.056-2.114-1.372-3.388-3.388-3.388s-3.388 1.484-3.388 3.654c0 2.184 1.4 3.654 3.542 3.654zm-2.268-4.382c.112-1.162 1.078-1.918 2.128-1.918 1.19 0 2.03.686 2.142 1.918h-4.27zM262.13 270h1.26l1.792-5.306 1.722 5.306h1.26l2.38-7.14h-1.162l-1.862 5.81-1.778-5.81h-1.064l-1.876 5.81-1.778-5.81h-1.204l2.31 7.14zm9.733-5.95c0 .476.336.784.798.784s.798-.308.798-.784c0-.476-.336-.784-.798-.784s-.798.308-.798.784zm0 5.25c0 .476.336.784.798.784s.798-.308.798-.784c0-.476-.336-.784-.798-.784s-.798.308-.798.784z" fill="#FBFBFB"/><path d="M303.952 269h1.218v-9.8h-1.218v9.8zm11.023.084c1.652 0 2.828-1.05 3.108-2.478h-1.162c-.238.924-1.022 1.456-2.03 1.456-1.358 0-2.212-.952-2.254-2.31v-.098h5.544c.014-.168.028-.336.028-.49-.056-2.114-1.372-3.388-3.388-3.388s-3.388 1.484-3.388 3.654c0 2.184 1.4 3.654 3.542 3.654zm-2.268-4.382c.112-1.162 1.078-1.918 2.128-1.918 1.19 0 2.03.686 2.142 1.918h-4.27zm10.872-2.926c-1.204 0-1.932.504-2.352 1.05l-.154-.966h-.994V269h1.148v-3.57c0-1.61.812-2.604 2.156-2.604 1.246 0 1.932.784 1.932 2.268V269h1.148v-3.976c0-2.366-1.274-3.248-2.884-3.248zm5.566-1.12c.42 0 .742-.308.742-.742a.721.721 0 00-.742-.742.721.721 0 00-.742.742c0 .434.322.742.742.742zm-2.254 11.144h.966c1.33 0 1.862-.602 1.862-1.862v-8.078h-1.148v8.106c0 .546-.21.784-.784.784h-.896v1.05zm8.249-2.716c2.086 0 3.542-1.484 3.542-3.654s-1.456-3.654-3.542-3.654-3.542 1.484-3.542 3.654 1.456 3.654 3.542 3.654zm0-1.022c-1.414 0-2.366-1.106-2.366-2.632s.952-2.632 2.366-2.632c1.414 0 2.366 1.106 2.366 2.632s-.952 2.632-2.366 2.632zm7.176.98l-.35.868c-.266.672-.378.84-1.036.84h-1.022v1.05h1.372c1.008 0 1.274-.448 1.722-1.596l3.29-8.344h-1.218l-2.128 5.698-2.198-5.698h-1.218l2.786 7.182zm8.367.042c1.652 0 2.828-1.05 3.108-2.478h-1.162c-.238.924-1.022 1.456-2.03 1.456-1.358 0-2.212-.952-2.254-2.31v-.098h5.544c.014-.168.028-.336.028-.49-.056-2.114-1.372-3.388-3.388-3.388s-3.388 1.484-3.388 3.654c0 2.184 1.4 3.654 3.542 3.654zm-2.268-4.382c.112-1.162 1.078-1.918 2.128-1.918 1.19 0 2.03.686 2.142 1.918h-4.27zm13-1.75c-.434-.686-1.246-1.176-2.45-1.176-1.974 0-3.43 1.47-3.43 3.654 0 2.324 1.456 3.654 3.43 3.654 1.204 0 1.974-.574 2.45-1.232l.154 1.148h.994v-9.8h-1.148v3.752zm-2.338 5.11c-1.414 0-2.366-1.078-2.366-2.632s.952-2.632 2.366-2.632c1.4 0 2.352 1.092 2.352 2.66 0 1.526-.952 2.604-2.352 2.604zm10.366-.924c0 1.26.49 1.862 1.862 1.862h1.246v-1.05h-1.134c-.616 0-.826-.224-.826-.826v-4.214h1.848v-1.05h-1.848v-2.002h-1.148v2.002h-1.288v1.05h1.288v4.228zm8.163-5.362c-1.204 0-1.932.588-2.352 1.26V259.2h-1.148v9.8h1.148v-3.57c0-1.61.826-2.604 2.156-2.604 1.232 0 1.946.784 1.946 2.268V269h1.148v-3.976c0-2.366-1.302-3.248-2.898-3.248zm5.509-1.12c.42 0 .742-.308.742-.742a.721.721 0 00-.742-.742.721.721 0 00-.742.742c0 .434.322.742.742.742zm-.588 8.344h1.148v-7.14h-1.148V269zm2.987-2.352c.028 1.568 1.302 2.436 3.15 2.436 1.582 0 2.856-.826 2.856-2.156 0-1.582-1.302-1.89-2.926-2.086-1.036-.126-1.792-.224-1.792-1.008 0-.658.672-1.078 1.666-1.078.98 0 1.652.546 1.736 1.274h1.176c-.112-1.484-1.288-2.24-2.912-2.254-1.61-.014-2.8.84-2.8 2.142 0 1.484 1.274 1.806 2.87 2.002 1.064.126 1.848.196 1.848 1.092 0 .658-.714 1.092-1.722 1.092-1.19 0-1.932-.616-1.974-1.456h-1.176zm20.031-4.872c-1.274 0-2.044.588-2.478 1.358-.406-.91-1.26-1.358-2.254-1.358-1.106 0-1.708.546-2.086 1.064l-.154-.98h-.994V269h1.148v-3.766c0-1.428.714-2.408 1.89-2.408 1.092 0 1.722.728 1.722 2.128V269h1.148v-3.822c0-1.456.728-2.352 1.918-2.352 1.078 0 1.694.728 1.694 2.128V269h1.148v-4.116c0-2.254-1.218-3.108-2.702-3.108zm7.942 7.308c2.086 0 3.542-1.484 3.542-3.654s-1.456-3.654-3.542-3.654-3.542 1.484-3.542 3.654 1.456 3.654 3.542 3.654zm0-1.022c-1.414 0-2.366-1.106-2.366-2.632s.952-2.632 2.366-2.632c1.414 0 2.366 1.106 2.366 2.632s-.952 2.632-2.366 2.632zm7.064.938h1.386l2.674-7.14h-1.204l-2.142 5.838-2.156-5.838h-1.232l2.674 7.14zm6.065-8.344c.42 0 .742-.308.742-.742a.721.721 0 00-.742-.742.721.721 0 00-.742.742c0 .434.322.742.742.742zm-.588 8.344h1.148v-7.14h-1.148V269zm6.571.084c1.652 0 2.828-1.05 3.108-2.478h-1.162c-.238.924-1.022 1.456-2.03 1.456-1.358 0-2.212-.952-2.254-2.31v-.098h5.544c.014-.168.028-.336.028-.49-.056-2.114-1.372-3.388-3.388-3.388s-3.388 1.484-3.388 3.654c0 2.184 1.4 3.654 3.542 3.654zm-2.268-4.382c.112-1.162 1.078-1.918 2.128-1.918 1.19 0 2.03.686 2.142 1.918h-4.27zm6.767 3.598c0 .476.336.784.798.784s.798-.308.798-.784c0-.476-.336-.784-.798-.784s-.798.308-.798.784z" fill="#2B2649"/><path d="M224.28 97.32h3.178V106h1.218v-8.68h3.178V96.2h-7.574v1.12zm12.699 1.456c-1.204 0-1.932.588-2.352 1.26V96.2h-1.148v9.8h1.148v-3.57c0-1.61.826-2.604 2.156-2.604 1.232 0 1.946.784 1.946 2.268V106h1.148v-3.976c0-2.366-1.302-3.248-2.898-3.248zm5.509-1.12c.42 0 .742-.308.742-.742a.721.721 0 00-.742-.742.721.721 0 00-.742.742c0 .434.322.742.742.742zM241.9 106h1.148v-7.14H241.9V106zm2.987-2.352c.028 1.568 1.302 2.436 3.15 2.436 1.582 0 2.856-.826 2.856-2.156 0-1.582-1.302-1.89-2.926-2.086-1.036-.126-1.792-.224-1.792-1.008 0-.658.672-1.078 1.666-1.078.98 0 1.652.546 1.736 1.274h1.176c-.112-1.484-1.288-2.24-2.912-2.254-1.61-.014-2.8.84-2.8 2.142 0 1.484 1.274 1.806 2.87 2.002 1.064.126 1.848.196 1.848 1.092 0 .658-.714 1.092-1.722 1.092-1.19 0-1.932-.616-1.974-1.456h-1.176zm12.652-5.992c.42 0 .742-.308.742-.742a.721.721 0 00-.742-.742.721.721 0 00-.742.742c0 .434.322.742.742.742zm-.588 8.344h1.148v-7.14h-1.148V106zm2.987-2.352c.028 1.568 1.302 2.436 3.15 2.436 1.582 0 2.856-.826 2.856-2.156 0-1.582-1.302-1.89-2.926-2.086-1.036-.126-1.792-.224-1.792-1.008 0-.658.672-1.078 1.666-1.078.98 0 1.652.546 1.736 1.274h1.176c-.112-1.484-1.288-2.24-2.912-2.254-1.61-.014-2.8.84-2.8 2.142 0 1.484 1.274 1.806 2.87 2.002 1.064.126 1.848.196 1.848 1.092 0 .658-.714 1.092-1.722 1.092-1.19 0-1.932-.616-1.974-1.456h-1.176zm18.378 1.302c-.322 0-.462-.098-.462-.476v-3.122c0-1.666-1.05-2.576-2.87-2.576-1.722 0-2.856.826-3.024 2.226h1.148c.14-.728.812-1.204 1.82-1.204 1.12 0 1.778.56 1.778 1.484v.49h-2.1c-1.876 0-2.87.798-2.87 2.226 0 1.302 1.064 2.086 2.632 2.086 1.232 0 1.946-.546 2.394-1.19.014.7.336 1.106 1.288 1.106h.63v-1.05h-.364zm-1.61-1.862c0 1.19-.826 2.016-2.254 2.016-.952 0-1.554-.476-1.554-1.176 0-.812.574-1.19 1.596-1.19h2.212v.35zm15.607-4.312c-1.274 0-2.044.588-2.478 1.358-.406-.91-1.26-1.358-2.254-1.358-1.106 0-1.708.546-2.086 1.064l-.154-.98h-.994V106h1.148v-3.766c0-1.428.714-2.408 1.89-2.408 1.092 0 1.722.728 1.722 2.128V106h1.148v-3.822c0-1.456.728-2.352 1.918-2.352 1.078 0 1.694.728 1.694 2.128V106h1.148v-4.116c0-2.254-1.218-3.108-2.702-3.108zm7.942 7.308c2.086 0 3.542-1.484 3.542-3.654s-1.456-3.654-3.542-3.654-3.542 1.484-3.542 3.654 1.456 3.654 3.542 3.654zm0-1.022c-1.414 0-2.366-1.106-2.366-2.632s.952-2.632 2.366-2.632c1.414 0 2.366 1.106 2.366 2.632s-.952 2.632-2.366 2.632zm7.064.938h1.386l2.674-7.14h-1.204l-2.142 5.838-2.156-5.838h-1.232l2.674 7.14zm8.453.084c1.652 0 2.828-1.05 3.108-2.478h-1.162c-.238.924-1.022 1.456-2.03 1.456-1.358 0-2.212-.952-2.254-2.31v-.098h5.544c.014-.168.028-.336.028-.49-.056-2.114-1.372-3.388-3.388-3.388s-3.388 1.484-3.388 3.654c0 2.184 1.4 3.654 3.542 3.654zm-2.268-4.382c.112-1.162 1.078-1.918 2.128-1.918 1.19 0 2.03.686 2.142 1.918h-4.27zm14.9-2.842c-1.274 0-1.82.532-2.156 1.078l-.154-1.078h-.994V106h1.148v-3.64c0-1.134.406-2.38 1.904-2.38h.574v-1.12h-.322zm4.757 7.224c1.652 0 2.828-1.05 3.108-2.478h-1.162c-.238.924-1.022 1.456-2.03 1.456-1.358 0-2.212-.952-2.254-2.31v-.098h5.544c.014-.168.028-.336.028-.49-.056-2.114-1.372-3.388-3.388-3.388s-3.388 1.484-3.388 3.654c0 2.184 1.4 3.654 3.542 3.654zm-2.268-4.382c.112-1.162 1.078-1.918 2.128-1.918 1.19 0 2.03.686 2.142 1.918h-4.27zM339.91 106h1.386l2.674-7.14h-1.204l-2.142 5.838-2.156-5.838h-1.232l2.674 7.14zm6.065-8.344c.42 0 .742-.308.742-.742a.721.721 0 00-.742-.742.721.721 0 00-.742.742c0 .434.322.742.742.742zm-.588 8.344h1.148v-7.14h-1.148V106zm6.571.084c1.652 0 2.828-1.05 3.108-2.478h-1.162c-.238.924-1.022 1.456-2.03 1.456-1.358 0-2.212-.952-2.254-2.31v-.098h5.544c.014-.168.028-.336.028-.49-.056-2.114-1.372-3.388-3.388-3.388s-3.388 1.484-3.388 3.654c0 2.184 1.4 3.654 3.542 3.654zm-2.268-4.382c.112-1.162 1.078-1.918 2.128-1.918 1.19 0 2.03.686 2.142 1.918h-4.27zm8.778 4.298h1.26l1.792-5.306 1.722 5.306h1.26l2.38-7.14h-1.162l-1.862 5.81-1.778-5.81h-1.064l-1.876 5.81-1.778-5.81h-1.204l2.31 7.14zm13.803-2.352c.028 1.568 1.302 2.436 3.15 2.436 1.582 0 2.856-.826 2.856-2.156 0-1.582-1.302-1.89-2.926-2.086-1.036-.126-1.792-.224-1.792-1.008 0-.658.672-1.078 1.666-1.078.98 0 1.652.546 1.736 1.274h1.176c-.112-1.484-1.288-2.24-2.912-2.254-1.61-.014-2.8.84-2.8 2.142 0 1.484 1.274 1.806 2.87 2.002 1.064.126 1.848.196 1.848 1.092 0 .658-.714 1.092-1.722 1.092-1.19 0-1.932-.616-1.974-1.456h-1.176zm11.13 2.436c1.652 0 2.828-1.05 3.108-2.478h-1.162c-.238.924-1.022 1.456-2.03 1.456-1.358 0-2.212-.952-2.254-2.31v-.098h5.544c.014-.168.028-.336.028-.49-.056-2.114-1.372-3.388-3.388-3.388s-3.388 1.484-3.388 3.654c0 2.184 1.4 3.654 3.542 3.654zm-2.268-4.382c.112-1.162 1.078-1.918 2.128-1.918 1.19 0 2.03.686 2.142 1.918h-4.27zm10.872-2.926c-1.204 0-1.932.504-2.352 1.05l-.154-.966h-.994V106h1.148v-3.57c0-1.61.812-2.604 2.156-2.604 1.246 0 1.932.784 1.932 2.268V106h1.148v-3.976c0-2.366-1.274-3.248-2.884-3.248zm5.44 5.362c0 1.26.49 1.862 1.862 1.862h1.246v-1.05h-1.134c-.616 0-.826-.224-.826-.826V99.91h1.848v-1.05h-1.848v-2.002h-1.148v2.002h-1.288v1.05h1.288v4.228zm5.251-6.482c.42 0 .742-.308.742-.742a.721.721 0 00-.742-.742.721.721 0 00-.742.742c0 .434.322.742.742.742zm-.588 8.344h1.148v-7.14h-1.148V106zm11.246-7.224c-1.274 0-2.044.588-2.478 1.358-.406-.91-1.26-1.358-2.254-1.358-1.106 0-1.708.546-2.086 1.064l-.154-.98h-.994V106h1.148v-3.766c0-1.428.714-2.408 1.89-2.408 1.092 0 1.722.728 1.722 2.128V106h1.148v-3.822c0-1.456.728-2.352 1.918-2.352 1.078 0 1.694.728 1.694 2.128V106h1.148v-4.116c0-2.254-1.218-3.108-2.702-3.108zm7.943 7.308c1.652 0 2.828-1.05 3.108-2.478h-1.162c-.238.924-1.022 1.456-2.03 1.456-1.358 0-2.212-.952-2.254-2.31v-.098h5.544c.014-.168.028-.336.028-.49-.056-2.114-1.372-3.388-3.388-3.388s-3.388 1.484-3.388 3.654c0 2.184 1.4 3.654 3.542 3.654zm-2.268-4.382c.112-1.162 1.078-1.918 2.128-1.918 1.19 0 2.03.686 2.142 1.918h-4.27zm10.872-2.926c-1.204 0-1.932.504-2.352 1.05l-.154-.966h-.994V106h1.148v-3.57c0-1.61.812-2.604 2.156-2.604 1.246 0 1.932.784 1.932 2.268V106h1.148v-3.976c0-2.366-1.274-3.248-2.884-3.248zm5.44 5.362c0 1.26.49 1.862 1.862 1.862h1.246v-1.05h-1.134c-.616 0-.826-.224-.826-.826V99.91h1.848v-1.05h-1.848v-2.002h-1.148v2.002h-1.288v1.05h1.288v4.228zm12.092 1.946c1.736 0 2.898-.98 3.178-2.52h-1.218c-.224.91-.924 1.498-1.946 1.498-1.372 0-2.296-1.064-2.296-2.618 0-1.554.924-2.646 2.296-2.646 1.05 0 1.75.574 1.96 1.526h1.204c-.294-1.568-1.4-2.548-3.15-2.548-2.072 0-3.486 1.484-3.486 3.668 0 2.226 1.372 3.64 3.458 3.64zm4.997-.084h1.148v-9.8h-1.148v9.8zm9.595-1.05c-.322 0-.462-.098-.462-.476v-3.122c0-1.666-1.05-2.576-2.87-2.576-1.722 0-2.856.826-3.024 2.226h1.148c.14-.728.812-1.204 1.82-1.204 1.12 0 1.778.56 1.778 1.484v.49h-2.1c-1.876 0-2.87.798-2.87 2.226 0 1.302 1.064 2.086 2.632 2.086 1.232 0 1.946-.546 2.394-1.19.014.7.336 1.106 1.288 1.106h.63v-1.05h-.364zm-1.61-1.862c0 1.19-.826 2.016-2.254 2.016-.952 0-1.554-.476-1.554-1.176 0-.812.574-1.19 1.596-1.19h2.212v.35zm3.122.56c.028 1.568 1.302 2.436 3.15 2.436 1.582 0 2.856-.826 2.856-2.156 0-1.582-1.302-1.89-2.926-2.086-1.036-.126-1.792-.224-1.792-1.008 0-.658.672-1.078 1.666-1.078.98 0 1.652.546 1.736 1.274h1.176c-.112-1.484-1.288-2.24-2.912-2.254-1.61-.014-2.8.84-2.8 2.142 0 1.484 1.274 1.806 2.87 2.002 1.064.126 1.848.196 1.848 1.092 0 .658-.714 1.092-1.722 1.092-1.19 0-1.932-.616-1.974-1.456h-1.176zm7.41 0c.028 1.568 1.302 2.436 3.15 2.436 1.582 0 2.856-.826 2.856-2.156 0-1.582-1.302-1.89-2.926-2.086-1.036-.126-1.792-.224-1.792-1.008 0-.658.672-1.078 1.666-1.078.98 0 1.652.546 1.736 1.274h1.176c-.112-1.484-1.288-2.24-2.912-2.254-1.61-.014-2.8.84-2.8 2.142 0 1.484 1.274 1.806 2.87 2.002 1.064.126 1.848.196 1.848 1.092 0 .658-.714 1.092-1.722 1.092-1.19 0-1.932-.616-1.974-1.456h-1.176zm8.428-5.992c.42 0 .742-.308.742-.742a.721.721 0 00-.742-.742.721.721 0 00-.742.742c0 .434.322.742.742.742zm-.588 8.344h1.148v-7.14h-1.148V106zm8.349-8.344c.42 0 .742-.308.742-.742a.721.721 0 00-.742-.742.721.721 0 00-.742.742c0 .434.322.742.742.742zm-3.388 1.204v-.826c0-.546.21-.784.784-.784h1.106V96.2h-1.176c-1.33 0-1.862.602-1.862 1.862v.798h-1.288v1.05h1.288V106h1.148v-6.09h2.8V106h1.148v-7.14h-3.948zm9.361 7.224c1.652 0 2.828-1.05 3.108-2.478h-1.162c-.238.924-1.022 1.456-2.03 1.456-1.358 0-2.212-.952-2.254-2.31v-.098h5.544c.014-.168.028-.336.028-.49-.056-2.114-1.372-3.388-3.388-3.388s-3.388 1.484-3.388 3.654c0 2.184 1.4 3.654 3.542 3.654zm-2.268-4.382c.112-1.162 1.078-1.918 2.128-1.918 1.19 0 2.03.686 2.142 1.918h-4.27zm10.676-2.842c-1.274 0-1.82.532-2.156 1.078l-.154-1.078h-.994V106h1.148v-3.64c0-1.134.406-2.38 1.904-2.38h.574v-1.12h-.322zm.985 6.44c0 .476.336.784.798.784s.798-.308.798-.784c0-.476-.336-.784-.798-.784s-.798.308-.798.784z" fill="#FBFBFB"/><path d="M72.28 97.32h3.178V106h1.218v-8.68h3.178V96.2H72.28v1.12zm14.474 7.63c-.322 0-.462-.098-.462-.476v-3.122c0-1.666-1.05-2.576-2.87-2.576-1.722 0-2.856.826-3.024 2.226h1.148c.14-.728.812-1.204 1.82-1.204 1.12 0 1.778.56 1.778 1.484v.49h-2.1c-1.876 0-2.87.798-2.87 2.226 0 1.302 1.064 2.086 2.632 2.086 1.232 0 1.946-.546 2.394-1.19.014.7.336 1.106 1.288 1.106h.63v-1.05h-.364zm-1.61-1.862c0 1.19-.826 2.016-2.254 2.016-.952 0-1.554-.476-1.554-1.176 0-.812.574-1.19 1.596-1.19h2.212v.35zm3.122.56c.028 1.568 1.302 2.436 3.15 2.436 1.582 0 2.856-.826 2.856-2.156 0-1.582-1.302-1.89-2.926-2.086-1.036-.126-1.792-.224-1.792-1.008 0-.658.672-1.078 1.666-1.078.98 0 1.652.546 1.736 1.274h1.176c-.112-1.484-1.288-2.24-2.912-2.254-1.61-.014-2.8.84-2.8 2.142 0 1.484 1.274 1.806 2.87 2.002 1.064.126 1.848.196 1.848 1.092 0 .658-.714 1.092-1.722 1.092-1.19 0-1.932-.616-1.974-1.456h-1.176zm7.84 2.352h1.149v-1.876l1.442-1.484 2.366 3.36h1.386l-2.982-4.186 2.786-2.954h-1.414l-3.584 3.794V96.2h-1.148v9.8zm15.239 0c3.066 0 4.928-1.974 4.928-4.9 0-2.94-1.862-4.9-4.928-4.9h-3.136v9.8h3.136zm-1.918-8.68h1.918c2.38 0 3.682 1.484 3.682 3.78 0 2.282-1.302 3.78-3.682 3.78h-1.918v-7.56zm12.062 8.764c1.652 0 2.828-1.05 3.108-2.478h-1.162c-.238.924-1.022 1.456-2.03 1.456-1.358 0-2.212-.952-2.254-2.31v-.098h5.544c.014-.168.028-.336.028-.49-.056-2.114-1.372-3.388-3.388-3.388s-3.388 1.484-3.388 3.654c0 2.184 1.4 3.654 3.542 3.654zm-2.268-4.382c.112-1.162 1.078-1.918 2.128-1.918 1.19 0 2.03.686 2.142 1.918h-4.27zm7.05 1.946c.028 1.568 1.302 2.436 3.15 2.436 1.582 0 2.856-.826 2.856-2.156 0-1.582-1.302-1.89-2.926-2.086-1.036-.126-1.792-.224-1.792-1.008 0-.658.672-1.078 1.666-1.078.98 0 1.652.546 1.736 1.274h1.176c-.112-1.484-1.288-2.24-2.912-2.254-1.61-.014-2.8.84-2.8 2.142 0 1.484 1.274 1.806 2.87 2.002 1.064.126 1.848.196 1.848 1.092 0 .658-.714 1.092-1.722 1.092-1.19 0-1.932-.616-1.974-1.456h-1.176zm11.047 2.436c1.736 0 2.898-.98 3.178-2.52h-1.218c-.224.91-.924 1.498-1.946 1.498-1.372 0-2.296-1.064-2.296-2.618 0-1.554.924-2.646 2.296-2.646 1.05 0 1.75.574 1.96 1.526h1.204c-.294-1.568-1.4-2.548-3.15-2.548-2.072 0-3.486 1.484-3.486 3.668 0 2.226 1.372 3.64 3.458 3.64zm8.3-7.224c-1.274 0-1.82.532-2.156 1.078l-.154-1.078h-.994V106h1.148v-3.64c0-1.134.406-2.38 1.904-2.38h.574v-1.12h-.322zm2.465-1.204c.42 0 .742-.308.742-.742a.721.721 0 00-.742-.742.721.721 0 00-.742.742c0 .434.322.742.742.742zm-.588 8.344h1.148v-7.14h-1.148V106zm6.879-7.224c-1.204 0-1.974.574-2.45 1.232l-.154-1.148h-.994v9.94h1.148v-3.892c.434.686 1.246 1.176 2.45 1.176 1.974 0 3.43-1.47 3.43-3.654 0-2.324-1.456-3.654-3.43-3.654zm-.112 6.286c-1.4 0-2.352-1.092-2.352-2.66 0-1.526.952-2.604 2.352-2.604 1.414 0 2.366 1.078 2.366 2.632s-.952 2.632-2.366 2.632zm5.864-.924c0 1.26.49 1.862 1.862 1.862h1.246v-1.05H162.1c-.616 0-.826-.224-.826-.826V99.91h1.848v-1.05h-1.848v-2.002h-1.148v2.002h-1.288v1.05h1.288v4.228zm5.251-6.482c.42 0 .742-.308.742-.742a.721.721 0 00-.742-.742.721.721 0 00-.742.742c0 .434.322.742.742.742zm-.588 8.344h1.148v-7.14h-1.148V106zm6.57.084c2.086 0 3.542-1.484 3.542-3.654s-1.456-3.654-3.542-3.654-3.542 1.484-3.542 3.654 1.456 3.654 3.542 3.654zm0-1.022c-1.414 0-2.366-1.106-2.366-2.632s.952-2.632 2.366-2.632c1.414 0 2.366 1.106 2.366 2.632s-.952 2.632-2.366 2.632zm8.919-6.286c-1.204 0-1.932.504-2.352 1.05l-.154-.966h-.994V106h1.148v-3.57c0-1.61.812-2.604 2.156-2.604 1.246 0 1.932.784 1.932 2.268V106h1.148v-3.976c0-2.366-1.274-3.248-2.884-3.248zM72.952 154h6.426v-1.12H74.17v-3.304h4.186v-1.12H74.17v-3.136h5.026v-1.12h-6.244v9.8zm7.429 0h1.302l2.086-2.87 2.086 2.87h1.372l-2.73-3.668 2.548-3.472h-1.302l-1.918 2.646-1.89-2.646h-1.372l2.534 3.472L80.381 154zm14.37-1.05c-.322 0-.462-.098-.462-.476v-3.122c0-1.666-1.05-2.576-2.87-2.576-1.722 0-2.856.826-3.024 2.226h1.148c.14-.728.812-1.204 1.82-1.204 1.12 0 1.778.56 1.778 1.484v.49h-2.1c-1.876 0-2.87.798-2.87 2.226 0 1.302 1.064 2.086 2.632 2.086 1.232 0 1.946-.546 2.394-1.19.014.7.336 1.106 1.288 1.106h.63v-1.05h-.364zm-1.61-1.862c0 1.19-.826 2.016-2.254 2.016-.952 0-1.554-.476-1.554-1.176 0-.812.574-1.19 1.596-1.19h2.212v.35zm11.383-4.312c-1.274 0-2.044.588-2.478 1.358-.406-.91-1.26-1.358-2.254-1.358-1.106 0-1.708.546-2.086 1.064l-.154-.98h-.994V154h1.148v-3.766c0-1.428.714-2.408 1.89-2.408 1.092 0 1.722.728 1.722 2.128V154h1.148v-3.822c0-1.456.728-2.352 1.918-2.352 1.078 0 1.694.728 1.694 2.128V154h1.148v-4.116c0-2.254-1.218-3.108-2.702-3.108zm8.332 0c-1.204 0-1.974.574-2.45 1.232l-.154-1.148h-.994v9.94h1.148v-3.892c.434.686 1.246 1.176 2.45 1.176 1.974 0 3.43-1.47 3.43-3.654 0-2.324-1.456-3.654-3.43-3.654zm-.112 6.286c-1.4 0-2.352-1.092-2.352-2.66 0-1.526.952-2.604 2.352-2.604 1.414 0 2.366 1.078 2.366 2.632s-.952 2.632-2.366 2.632zm5.414.938h1.148v-9.8h-1.148v9.8zm6.571.084c1.652 0 2.828-1.05 3.108-2.478h-1.162c-.238.924-1.022 1.456-2.03 1.456-1.358 0-2.212-.952-2.254-2.31v-.098h5.544c.014-.168.028-.336.028-.49-.056-2.114-1.372-3.388-3.388-3.388s-3.388 1.484-3.388 3.654c0 2.184 1.4 3.654 3.542 3.654zm-2.268-4.382c.112-1.162 1.078-1.918 2.128-1.918 1.19 0 2.03.686 2.142 1.918h-4.27zm13.15-4.438c0 .49-.224.84-.686.84h-1.596v1.05h1.582c.308 0 .532-.056.672-.182V154h1.176v-9.8h-1.148v1.064zM72.952 218h6.426v-1.12H74.17v-3.304h4.186v-1.12H74.17v-3.136h5.026v-1.12h-6.244v9.8zm7.429 0h1.302l2.086-2.87 2.086 2.87h1.372l-2.73-3.668 2.548-3.472h-1.302l-1.918 2.646-1.89-2.646h-1.372l2.534 3.472L80.381 218zm14.37-1.05c-.322 0-.462-.098-.462-.476v-3.122c0-1.666-1.05-2.576-2.87-2.576-1.722 0-2.856.826-3.024 2.226h1.148c.14-.728.812-1.204 1.82-1.204 1.12 0 1.778.56 1.778 1.484v.49h-2.1c-1.876 0-2.87.798-2.87 2.226 0 1.302 1.064 2.086 2.632 2.086 1.232 0 1.946-.546 2.394-1.19.014.7.336 1.106 1.288 1.106h.63v-1.05h-.364zm-1.61-1.862c0 1.19-.826 2.016-2.254 2.016-.952 0-1.554-.476-1.554-1.176 0-.812.574-1.19 1.596-1.19h2.212v.35zm11.383-4.312c-1.274 0-2.044.588-2.478 1.358-.406-.91-1.26-1.358-2.254-1.358-1.106 0-1.708.546-2.086 1.064l-.154-.98h-.994V218h1.148v-3.766c0-1.428.714-2.408 1.89-2.408 1.092 0 1.722.728 1.722 2.128V218h1.148v-3.822c0-1.456.728-2.352 1.918-2.352 1.078 0 1.694.728 1.694 2.128V218h1.148v-4.116c0-2.254-1.218-3.108-2.702-3.108zm8.332 0c-1.204 0-1.974.574-2.45 1.232l-.154-1.148h-.994v9.94h1.148v-3.892c.434.686 1.246 1.176 2.45 1.176 1.974 0 3.43-1.47 3.43-3.654 0-2.324-1.456-3.654-3.43-3.654zm-.112 6.286c-1.4 0-2.352-1.092-2.352-2.66 0-1.526.952-2.604 2.352-2.604 1.414 0 2.366 1.078 2.366 2.632s-.952 2.632-2.366 2.632zm5.414.938h1.148v-9.8h-1.148v9.8zm6.571.084c1.652 0 2.828-1.05 3.108-2.478h-1.162c-.238.924-1.022 1.456-2.03 1.456-1.358 0-2.212-.952-2.254-2.31v-.098h5.544c.014-.168.028-.336.028-.49-.056-2.114-1.372-3.388-3.388-3.388s-3.388 1.484-3.388 3.654c0 2.184 1.4 3.654 3.542 3.654zm-2.268-4.382c.112-1.162 1.078-1.918 2.128-1.918 1.19 0 2.03.686 2.142 1.918h-4.27zm11.12 4.298h6.748v-1.078h-5.124l2.94-2.492c1.162-.994 2.114-1.918 2.114-3.388 0-1.764-1.232-2.926-3.346-2.926-1.974 0-3.276 1.316-3.276 3.164v.252h1.176v-.182c0-1.344.84-2.184 2.1-2.184 1.302 0 2.142.7 2.142 1.932 0 1.064-.756 1.82-1.666 2.604l-3.808 3.304V218zM77.166 282.084c2.212 0 3.836-1.26 4.2-3.29h-1.288c-.364 1.372-1.414 2.17-2.926 2.17-2.058 0-3.318-1.61-3.318-3.864 0-2.268 1.316-3.864 3.374-3.864 1.47 0 2.506.812 2.884 2.17h1.288c-.364-2.03-1.946-3.29-4.116-3.29-2.842 0-4.676 2.016-4.676 4.984 0 2.996 1.764 4.984 4.578 4.984zm11.06-3.654c0 1.61-.783 2.604-2.085 2.604-1.19 0-1.862-.784-1.862-2.268v-3.906H83.13v3.976c0 2.366 1.246 3.248 2.814 3.248 1.176 0 1.862-.504 2.282-1.036l.154.952h.994v-7.14h-1.148v3.57zm6.578-3.57c-1.274 0-1.82.532-2.156 1.078l-.154-1.078H91.5V282h1.148v-3.64c0-1.134.406-2.38 1.904-2.38h.574v-1.12h-.322zm5.18 0c-1.273 0-1.82.532-2.155 1.078l-.154-1.078h-.994V282h1.148v-3.64c0-1.134.406-2.38 1.904-2.38h.574v-1.12h-.322zm4.758 7.224c1.652 0 2.828-1.05 3.108-2.478h-1.162c-.238.924-1.022 1.456-2.03 1.456-1.358 0-2.212-.952-2.254-2.31v-.098h5.544c.014-.168.028-.336.028-.49-.056-2.114-1.372-3.388-3.388-3.388s-3.388 1.484-3.388 3.654c0 2.184 1.4 3.654 3.542 3.654zm-2.268-4.382c.112-1.162 1.078-1.918 2.128-1.918 1.19 0 2.03.686 2.142 1.918h-4.27zm10.872-2.926c-1.204 0-1.932.504-2.352 1.05l-.154-.966h-.994V282h1.148v-3.57c0-1.61.812-2.604 2.156-2.604 1.246 0 1.932.784 1.932 2.268V282h1.148v-3.976c0-2.366-1.274-3.248-2.884-3.248zm5.439 5.362c0 1.26.49 1.862 1.862 1.862h1.246v-1.05h-1.134c-.616 0-.826-.224-.826-.826v-4.214h1.848v-1.05h-1.848v-2.002h-1.148v2.002h-1.288v1.05h1.288v4.228zM127.84 282h1.218v-9.8h-1.218v9.8zm7.009-7.224c-1.204 0-1.932.504-2.352 1.05l-.154-.966h-.994V282h1.148v-3.57c0-1.61.812-2.604 2.156-2.604 1.246 0 1.932.784 1.932 2.268V282h1.148v-3.976c0-2.366-1.274-3.248-2.884-3.248zm8.506 0c-1.204 0-1.974.574-2.45 1.232l-.154-1.148h-.994v9.94h1.148v-3.892c.434.686 1.246 1.176 2.45 1.176 1.974 0 3.43-1.47 3.43-3.654 0-2.324-1.456-3.654-3.43-3.654zm-.112 6.286c-1.4 0-2.352-1.092-2.352-2.66 0-1.526.952-2.604 2.352-2.604 1.414 0 2.366 1.078 2.366 2.632s-.952 2.632-2.366 2.632zm10.412-2.632c0 1.61-.784 2.604-2.086 2.604-1.19 0-1.862-.784-1.862-2.268v-3.906h-1.148v3.976c0 2.366 1.246 3.248 2.814 3.248 1.176 0 1.862-.504 2.282-1.036l.154.952h.994v-7.14h-1.148v3.57zm3.832 1.708c0 1.26.49 1.862 1.862 1.862h1.246v-1.05h-1.134c-.616 0-.826-.224-.826-.826v-4.214h1.848v-1.05h-1.848v-2.002h-1.148v2.002h-1.288v1.05h1.288v4.228z" fill="#000"/><path stroke="#999" d="M210 102.5h-22M210 150.5h-68M210 213.5h-65M210 278.5h-45"/><circle cx="685" cy="281" fill="#333293" r="7"/><path d="M688.471 280.946a.57.57 0 00-.049-.234.71.71 0 00-.147-.205l-3.803-3.721a.547.547 0 00-.401-.161c-.104 0-.2.026-.288.078a.568.568 0 00-.21.2.577.577 0 00.103.699l3.428 3.344-3.428 3.345a.579.579 0 00-.103.698.544.544 0 00.21.205.556.556 0 00.288.078c.16 0 .293-.055.401-.166l3.803-3.72a.723.723 0 00.147-.205.571.571 0 00.049-.235zM494.529 422.054a.57.57 0 00.049.234.71.71 0 00.147.205l3.803 3.721a.547.547 0 00.401.161c.104 0 .2-.026.288-.078a.568.568 0 00.21-.2.577.577 0 00-.103-.699l-3.428-3.344 3.428-3.345a.579.579 0 00.103-.698.544.544 0 00-.21-.205.556.556 0 00-.288-.078.536.536 0 00-.401.166l-3.803 3.72a.723.723 0 00-.147.205.571.571 0 00-.049.235z" fill="#FBFBFB"/></svg>