<?xml version="1.0" encoding="UTF-8"?>
<svg width="1023px" height="523px" viewBox="0 0 1023 523" version="1.1" xmlns="http://www.w3.org/2000/svg" xmlns:xlink="http://www.w3.org/1999/xlink">
    <!-- Generator: Sketch 62 (91390) - https://sketch.com -->
    <title>symbol</title>
    <desc>Created with Sketch.</desc>
    <g id="Page-1" stroke="none" stroke-width="1" fill="none" fill-rule="evenodd">
        <g id="symbol">
            <g id="Group-2">
                <rect id="Rectangle" fill="#F7F7F7" x="0" y="0" width="1023" height="523"></rect>
                <circle id="Oval" fill="#9C80FD" cx="844" cy="244" r="179"></circle>
                <text id="Model" font-family="Comfortaa-Bold, Comfortaa" font-size="64" font-weight="bold" fill="#FFFFFF">
                    <tspan x="739" y="265">Model</tspan>
                </text>
                <g id="prompt-text-2" transform="translate(107.000000, 362.000000)">
                    <g id="Group" transform="translate(0.000000, 42.000000)">
                        <rect id="Rectangle" fill-opacity="0.820640724" fill="#63AAEC" x="0" y="0" width="326" height="72" rx="8"></rect>
                        <rect id="Rectangle" fill="#F9F8FF" x="120" y="23" width="194" height="24" rx="12"></rect>
                        <rect id="Rectangle" fill="#2C1D62" x="20" y="23" width="93" height="24" rx="12"></rect>
                        <text id="symbol" fill="#FFFFFF" font-family="Comfortaa-Bold, Comfortaa" font-size="16" font-weight="bold">
                            <tspan x="36.916" y="40">symbol</tspan>
                        </text>
                    </g>
                    <text id="Prompt-N" font-family="Comfortaa-Bold, Comfortaa" font-size="32" font-weight="bold">
                        <tspan x="8" y="28" fill="#0CB093">Prompt </tspan>
                        <tspan x="138.528" y="28" fill="#000000">N</tspan>
                    </text>
                </g>
                <g id="prompt-text" transform="translate(109.000000, 19.000000)">
                    <g id="Group" transform="translate(24.000000, 64.000000)">
                        <rect id="Rectangle" fill="#7255D6" x="0" y="0" width="280" height="24" rx="12"></rect>
                        <text id="Task-Description" fill="#FFFFFF" font-family="Comfortaa-Bold, Comfortaa" font-size="16" font-weight="bold">
                            <tspan x="13" y="17">Task Description</tspan>
                        </text>
                    </g>
                    <g id="Group" transform="translate(0.000000, 46.000000)">
                        <rect id="Rectangle" fill-opacity="0.820640724" fill="#63AAEC" x="0" y="0" width="326" height="127" rx="8"></rect>
                        <rect id="Rectangle" fill="#7255D6" x="24" y="54" width="280" height="24" rx="12"></rect>
                        <rect id="Rectangle" fill="#F9F8FF" x="104" y="90" width="200" height="24" rx="12"></rect>
                        <rect id="Rectangle" fill="#2C1D62" x="80" y="54" width="93" height="24" rx="12"></rect>
                        <text id="symbol" fill="#FFFFFF" font-family="Comfortaa-Bold, Comfortaa" font-size="16" font-weight="bold">
                            <tspan x="96.916" y="71">symbol</tspan>
                        </text>
                        <rect id="Rectangle" fill="#2C1D62" x="24" y="90" width="69" height="24" rx="12"></rect>
                        <text id="rule-1" fill="#FFFFFF" font-family="Comfortaa-Bold, Comfortaa" font-size="16" font-weight="bold">
                            <tspan x="37" y="107">rule 1</tspan>
                        </text>
                    </g>
                    <text id="Prompt-1" font-family="Comfortaa-Bold, Comfortaa" font-size="32" font-weight="bold">
                        <tspan x="6" y="28" fill="#0CB093">Prompt </tspan>
                        <tspan x="136.528" y="28" fill="#000302">1</tspan>
                    </text>
                </g>
                <g id="text-text" transform="translate(109.000000, 209.000000)">
                    <rect id="Rectangle" fill="#09BE92" x="0" y="46" width="326" height="90" rx="8"></rect>
                    <rect id="Rectangle" fill="#EDFBF9" x="22" y="62" width="283" height="10" rx="5"></rect>
                    <rect id="Rectangle" fill="#EDFBF9" x="22" y="86" width="283" height="10" rx="5"></rect>
                    <rect id="Rectangle" fill="#EDFBF9" x="22" y="110" width="175" height="10" rx="5"></rect>
                    <text id="Generated-Text" font-family="Comfortaa-Bold, Comfortaa" font-size="32" font-weight="bold" fill="#0CB093">
                        <tspan x="0" y="28">Generated Text</tspan>
                    </text>
                </g>
            </g>
            <path id="Line" d="M695.240261,114.378424 L707.240261,121.128424 L708.789729,122 L707.240261,122.871576 L695.240261,129.621576 L694.259739,127.878424 L703,122.961 L703,121.037 L694.259739,116.121576 L695.240261,114.378424 Z M437,121 L437,123 L435,123 L435,121 L437,121 Z M441,121 L441,123 L439,123 L439,121 L441,121 Z M445,121 L445,123 L443,123 L443,121 L445,121 Z M449,121 L449,123 L447,123 L447,121 L449,121 Z M453,121 L453,123 L451,123 L451,121 L453,121 Z M457,121 L457,123 L455,123 L455,121 L457,121 Z M461,121 L461,123 L459,123 L459,121 L461,121 Z M465,121 L465,123 L463,123 L463,121 L465,121 Z M469,121 L469,123 L467,123 L467,121 L469,121 Z M473,121 L473,123 L471,123 L471,121 L473,121 Z M477,121 L477,123 L475,123 L475,121 L477,121 Z M481,121 L481,123 L479,123 L479,121 L481,121 Z M485,121 L485,123 L483,123 L483,121 L485,121 Z M489,121 L489,123 L487,123 L487,121 L489,121 Z M493,121 L493,123 L491,123 L491,121 L493,121 Z M497,121 L497,123 L495,123 L495,121 L497,121 Z M501,121 L501,123 L499,123 L499,121 L501,121 Z M505,121 L505,123 L503,123 L503,121 L505,121 Z M509,121 L509,123 L507,123 L507,121 L509,121 Z M513,121 L513,123 L511,123 L511,121 L513,121 Z M517,121 L517,123 L515,123 L515,121 L517,121 Z M521,121 L521,123 L519,123 L519,121 L521,121 Z M525,121 L525,123 L523,123 L523,121 L525,121 Z M529,121 L529,123 L527,123 L527,121 L529,121 Z M533,121 L533,123 L531,123 L531,121 L533,121 Z M537,121 L537,123 L535,123 L535,121 L537,121 Z M541,121 L541,123 L539,123 L539,121 L541,121 Z M545,121 L545,123 L543,123 L543,121 L545,121 Z M549,121 L549,123 L547,123 L547,121 L549,121 Z M553,121 L553,123 L551,123 L551,121 L553,121 Z M557,121 L557,123 L555,123 L555,121 L557,121 Z M561,121 L561,123 L559,123 L559,121 L561,121 Z M565,121 L565,123 L563,123 L563,121 L565,121 Z M569,121 L569,123 L567,123 L567,121 L569,121 Z M573,121 L573,123 L571,123 L571,121 L573,121 Z M577,121 L577,123 L575,123 L575,121 L577,121 Z M581,121 L581,123 L579,123 L579,121 L581,121 Z M585,121 L585,123 L583,123 L583,121 L585,121 Z M589,121 L589,123 L587,123 L587,121 L589,121 Z M593,121 L593,123 L591,123 L591,121 L593,121 Z M597,121 L597,123 L595,123 L595,121 L597,121 Z M601,121 L601,123 L599,123 L599,121 L601,121 Z M605,121 L605,123 L603,123 L603,121 L605,121 Z M609,121 L609,123 L607,123 L607,121 L609,121 Z M613,121 L613,123 L611,123 L611,121 L613,121 Z M617,121 L617,123 L615,123 L615,121 L617,121 Z M621,121 L621,123 L619,123 L619,121 L621,121 Z M625,121 L625,123 L623,123 L623,121 L625,121 Z M629,121 L629,123 L627,123 L627,121 L629,121 Z M633,121 L633,123 L631,123 L631,121 L633,121 Z M637,121 L637,123 L635,123 L635,121 L637,121 Z M641,121 L641,123 L639,123 L639,121 L641,121 Z M645,121 L645,123 L643,123 L643,121 L645,121 Z M649,121 L649,123 L647,123 L647,121 L649,121 Z M653,121 L653,123 L651,123 L651,121 L653,121 Z M657,121 L657,123 L655,123 L655,121 L657,121 Z M661,121 L661,123 L659,123 L659,121 L661,121 Z M665,121 L665,123 L663,123 L663,121 L665,121 Z M669,121 L669,123 L667,123 L667,121 L669,121 Z M673,121 L673,123 L671,123 L671,121 L673,121 Z M677,121 L677,123 L675,123 L675,121 L677,121 Z M681,121 L681,123 L679,123 L679,121 L681,121 Z M685,121 L685,123 L683,123 L683,121 L685,121 Z M689,121 L689,123 L687,123 L687,121 L689,121 Z M693,121 L693,123 L691,123 L691,121 L693,121 Z M697,121 L697,123 L695,123 L695,121 L697,121 Z M701,121 L701,123 L699,123 L699,121 L701,121 Z" fill="#979797" fill-rule="nonzero"></path>
            <path id="Line" d="M649,441 L649,443 L647,443 L647,441 L649,441 Z M849,441 L849,443 L847,443 L847,441 L849,441 Z M437,441 L437,443 L435,443 L435,441 L437,441 Z M441,441 L441,443 L439,443 L439,441 L441,441 Z M445,441 L445,443 L443,443 L443,441 L445,441 Z M449,441 L449,443 L447,443 L447,441 L449,441 Z M453,441 L453,443 L451,443 L451,441 L453,441 Z M457,441 L457,443 L455,443 L455,441 L457,441 Z M461,441 L461,443 L459,443 L459,441 L461,441 Z M465,441 L465,443 L463,443 L463,441 L465,441 Z M469,441 L469,443 L467,443 L467,441 L469,441 Z M473,441 L473,443 L471,443 L471,441 L473,441 Z M477,441 L477,443 L475,443 L475,441 L477,441 Z M481,441 L481,443 L479,443 L479,441 L481,441 Z M485,441 L485,443 L483,443 L483,441 L485,441 Z M489,441 L489,443 L487,443 L487,441 L489,441 Z M493,441 L493,443 L491,443 L491,441 L493,441 Z M497,441 L497,443 L495,443 L495,441 L497,441 Z M501,441 L501,443 L499,443 L499,441 L501,441 Z M505,441 L505,443 L503,443 L503,441 L505,441 Z M509,441 L509,443 L507,443 L507,441 L509,441 Z M513,441 L513,443 L511,443 L511,441 L513,441 Z M517,441 L517,443 L515,443 L515,441 L517,441 Z M521,441 L521,443 L519,443 L519,441 L521,441 Z M525,441 L525,443 L523,443 L523,441 L525,441 Z M529,441 L529,443 L527,443 L527,441 L529,441 Z M533,441 L533,443 L531,443 L531,441 L533,441 Z M537,441 L537,443 L535,443 L535,441 L537,441 Z M541,441 L541,443 L539,443 L539,441 L541,441 Z M545,441 L545,443 L543,443 L543,441 L545,441 Z M549,441 L549,443 L547,443 L547,441 L549,441 Z M553,441 L553,443 L551,443 L551,441 L553,441 Z M557,441 L557,443 L555,443 L555,441 L557,441 Z M561,441 L561,443 L559,443 L559,441 L561,441 Z M565,441 L565,443 L563,443 L563,441 L565,441 Z M569,441 L569,443 L567,443 L567,441 L569,441 Z M573,441 L573,443 L571,443 L571,441 L573,441 Z M577,441 L577,443 L575,443 L575,441 L577,441 Z M581,441 L581,443 L579,443 L579,441 L581,441 Z M585,441 L585,443 L583,443 L583,441 L585,441 Z M589,441 L589,443 L587,443 L587,441 L589,441 Z M593,441 L593,443 L591,443 L591,441 L593,441 Z M597,441 L597,443 L595,443 L595,441 L597,441 Z M601,441 L601,443 L599,443 L599,441 L601,441 Z M605,441 L605,443 L603,443 L603,441 L605,441 Z M609,441 L609,443 L607,443 L607,441 L609,441 Z M613,441 L613,443 L611,443 L611,441 L613,441 Z M617,441 L617,443 L615,443 L615,441 L617,441 Z M621,441 L621,443 L619,443 L619,441 L621,441 Z M625,441 L625,443 L623,443 L623,441 L625,441 Z M629,441 L629,443 L627,443 L627,441 L629,441 Z M633,441 L633,443 L631,443 L631,441 L633,441 Z M637,441 L637,443 L635,443 L635,441 L637,441 Z M641,441 L641,443 L639,443 L639,441 L641,441 Z M645,441 L645,443 L643,443 L643,441 L645,441 Z M845,441 L845,443 L843,443 L843,441 L845,441 Z M653,441 L653,443 L651,443 L651,441 L653,441 Z M657,441 L657,443 L655,443 L655,441 L657,441 Z M661,441 L661,443 L659,443 L659,441 L661,441 Z M665,441 L665,443 L663,443 L663,441 L665,441 Z M669,441 L669,443 L667,443 L667,441 L669,441 Z M673,441 L673,443 L671,443 L671,441 L673,441 Z M677,441 L677,443 L675,443 L675,441 L677,441 Z M681,441 L681,443 L679,443 L679,441 L681,441 Z M685,441 L685,443 L683,443 L683,441 L685,441 Z M689,441 L689,443 L687,443 L687,441 L689,441 Z M693,441 L693,443 L691,443 L691,441 L693,441 Z M697,441 L697,443 L695,443 L695,441 L697,441 Z M701,441 L701,443 L699,443 L699,441 L701,441 Z M705,441 L705,443 L703,443 L703,441 L705,441 Z M709,441 L709,443 L707,443 L707,441 L709,441 Z M713,441 L713,443 L711,443 L711,441 L713,441 Z M717,441 L717,443 L715,443 L715,441 L717,441 Z M721,441 L721,443 L719,443 L719,441 L721,441 Z M725,441 L725,443 L723,443 L723,441 L725,441 Z M729,441 L729,443 L727,443 L727,441 L729,441 Z M733,441 L733,443 L731,443 L731,441 L733,441 Z M737,441 L737,443 L735,443 L735,441 L737,441 Z M741,441 L741,443 L739,443 L739,441 L741,441 Z M745,441 L745,443 L743,443 L743,441 L745,441 Z M749,441 L749,443 L747,443 L747,441 L749,441 Z M753,441 L753,443 L751,443 L751,441 L753,441 Z M757,441 L757,443 L755,443 L755,441 L757,441 Z M761,441 L761,443 L759,443 L759,441 L761,441 Z M765,441 L765,443 L763,443 L763,441 L765,441 Z M769,441 L769,443 L767,443 L767,441 L769,441 Z M773,441 L773,443 L771,443 L771,441 L773,441 Z M777,441 L777,443 L775,443 L775,441 L777,441 Z M781,441 L781,443 L779,443 L779,441 L781,441 Z M785,441 L785,443 L783,443 L783,441 L785,441 Z M789,441 L789,443 L787,443 L787,441 L789,441 Z M793,441 L793,443 L791,443 L791,441 L793,441 Z M797,441 L797,443 L795,443 L795,441 L797,441 Z M801,441 L801,443 L799,443 L799,441 L801,441 Z M805,441 L805,443 L803,443 L803,441 L805,441 Z M809,441 L809,443 L807,443 L807,441 L809,441 Z M813,441 L813,443 L811,443 L811,441 L813,441 Z M817,441 L817,443 L815,443 L815,441 L817,441 Z M821,441 L821,443 L819,443 L819,441 L821,441 Z M825,441 L825,443 L823,443 L823,441 L825,441 Z M829,441 L829,443 L827,443 L827,441 L829,441 Z M833,441 L833,443 L831,443 L831,441 L833,441 Z M837,441 L837,443 L835,443 L835,441 L837,441 Z M841,441 L841,443 L839,443 L839,441 L841,441 Z M851,439 L851,441 L849,441 L849,439 L851,439 Z M851,435 L851,437 L849,437 L849,435 L851,435 Z M850,421.210271 L850.871576,422.759739 L857.621576,434.759739 L855.878424,435.740261 L850.999,427.065 L851,429 L849,429 L848.999,427.068 L844.121576,435.740261 L842.378424,434.759739 L849.128424,422.759739 L850,421.210271 Z M851,431 L851,433 L849,433 L849,431 L851,431 Z M850,425.289 L849.038,427 L850.962,427 L850,425.289 Z" fill="#979797" fill-rule="nonzero"></path>
            <path id="Line" d="M445.759739,292.378424 L446.740261,294.121576 L437,299.6 L437,300.4 L446.740261,305.878424 L445.759739,307.621576 L433.759739,300.871576 L432.210271,300 L433.759739,299.128424 L445.759739,292.378424 Z M441,299 L441,301 L439,301 L439,299 L441,299 Z M445,299 L445,301 L443,301 L443,299 L445,299 Z M449,299 L449,301 L447,301 L447,299 L449,299 Z M453,299 L453,301 L451,301 L451,299 L453,299 Z M457,299 L457,301 L455,301 L455,299 L457,299 Z M461,299 L461,301 L459,301 L459,299 L461,299 Z M465,299 L465,301 L463,301 L463,299 L465,299 Z M469,299 L469,301 L467,301 L467,299 L469,299 Z M473,299 L473,301 L471,301 L471,299 L473,299 Z M477,299 L477,301 L475,301 L475,299 L477,299 Z M481,299 L481,301 L479,301 L479,299 L481,299 Z M485,299 L485,301 L483,301 L483,299 L485,299 Z M489,299 L489,301 L487,301 L487,299 L489,299 Z M493,299 L493,301 L491,301 L491,299 L493,299 Z M497,299 L497,301 L495,301 L495,299 L497,299 Z M501,299 L501,301 L499,301 L499,299 L501,299 Z M505,299 L505,301 L503,301 L503,299 L505,299 Z M509,299 L509,301 L507,301 L507,299 L509,299 Z M513,299 L513,301 L511,301 L511,299 L513,299 Z M517,299 L517,301 L515,301 L515,299 L517,299 Z M521,299 L521,301 L519,301 L519,299 L521,299 Z M525,299 L525,301 L523,301 L523,299 L525,299 Z M529,299 L529,301 L527,301 L527,299 L529,299 Z M533,299 L533,301 L531,301 L531,299 L533,299 Z M537,299 L537,301 L535,301 L535,299 L537,299 Z M541,299 L541,301 L539,301 L539,299 L541,299 Z M545,299 L545,301 L543,301 L543,299 L545,299 Z M549,299 L549,301 L547,301 L547,299 L549,299 Z M553,299 L553,301 L551,301 L551,299 L553,299 Z M557,299 L557,301 L555,301 L555,299 L557,299 Z M561,299 L561,301 L559,301 L559,299 L561,299 Z M565,299 L565,301 L563,301 L563,299 L565,299 Z M569,299 L569,301 L567,301 L567,299 L569,299 Z M573,299 L573,301 L571,301 L571,299 L573,299 Z M577,299 L577,301 L575,301 L575,299 L577,299 Z M581,299 L581,301 L579,301 L579,299 L581,299 Z M585,299 L585,301 L583,301 L583,299 L585,299 Z M589,299 L589,301 L587,301 L587,299 L589,299 Z M593,299 L593,301 L591,301 L591,299 L593,299 Z M597,299 L597,301 L595,301 L595,299 L597,299 Z M601,299 L601,301 L599,301 L599,299 L601,299 Z M605,299 L605,301 L603,301 L603,299 L605,299 Z M609,299 L609,301 L607,301 L607,299 L609,299 Z M613,299 L613,301 L611,301 L611,299 L613,299 Z M617,299 L617,301 L615,301 L615,299 L617,299 Z M621,299 L621,301 L619,301 L619,299 L621,299 Z M625,299 L625,301 L623,301 L623,299 L625,299 Z M629,299 L629,301 L627,301 L627,299 L629,299 Z M633,299 L633,301 L631,301 L631,299 L633,299 Z M637,299 L637,301 L635,301 L635,299 L637,299 Z M641,299 L641,301 L639,301 L639,299 L641,299 Z M645,299 L645,301 L643,301 L643,299 L645,299 Z M649,299 L649,301 L647,301 L647,299 L649,299 Z M653,299 L653,301 L651,301 L651,299 L653,299 Z M657,299 L657,301 L655,301 L655,299 L657,299 Z M661,299 L661,301 L659,301 L659,299 L661,299 Z M665,299 L665,301 L663,301 L663,299 L665,299 Z M669,299 L669,301 L667,301 L667,299 L669,299 Z" fill="#979797" fill-rule="nonzero"></path>
        </g>
    </g>
</svg>